<svg width="369" height="229" viewBox="0 0 369 229" fill="none" xmlns="http://www.w3.org/2000/svg">
<path d="M15.5554 154.115C24.9063 160.877 65.9751 166.781 110.955 170.923C110.943 170.995 110.939 171.072 110.939 171.144C98.0633 180.266 81.2607 186.739 64.2248 189.311C88.9337 189.311 111.514 180.758 132.755 172.77L132.674 172.761C132.401 172.741 132.123 172.717 131.849 172.693H131.853L132.674 172.761C154.458 174.463 176.121 175.725 194.622 176.451C194.871 176.459 195.12 176.471 195.37 176.48C175.779 189.803 145.783 202.829 124.973 209.224C124.873 209.257 124.816 209.349 124.84 209.446C124.86 209.527 124.933 209.587 125.017 209.595C125.033 209.595 125.05 209.595 125.062 209.595C150.539 206.591 188.864 192.989 210.032 177.012C236.962 177.923 263.586 178.468 287.249 178.782C270.917 192.969 249.306 207.18 233.16 215.604C233.067 215.652 233.031 215.757 233.071 215.846C233.107 215.923 233.188 215.967 233.272 215.959C233.288 215.959 233.304 215.955 233.316 215.951C253.487 209.753 280.827 194.888 299.666 178.927C333.621 179.29 359.766 179.202 369.004 179.153V149.937C252.956 166.463 131.298 171.753 15.5554 154.115Z" fill="#807BB0"/>
<path d="M5.59277 174.806C7.98279 172.882 10.1072 169.132 12.2196 166.914C14.332 164.696 16.6054 162.559 19.3575 161.176C22.1096 159.793 25.417 159.244 28.314 160.293C31.211 161.345 33.4964 164.237 33.2268 167.265C33.0015 169.818 31.1265 171.943 29.0503 173.491C22.4275 178.427 12.7427 178.968 5.59277 174.806Z" fill="#65D1CA"/>
<path d="M31.3197 162.293C31.3197 162.293 31.0702 162.531 30.6397 162.946C30.2011 163.365 29.5895 163.926 28.8009 164.579C28.0244 165.245 27.0708 165.958 26.0246 166.7C24.9704 167.43 23.8076 168.156 22.6166 168.83C21.4136 169.491 20.1824 170.1 18.9994 170.616C17.8125 171.12 16.6859 171.56 15.7001 171.878C14.7183 172.213 13.8854 172.447 13.302 172.6C12.7146 172.753 12.3806 172.838 12.3806 172.838C12.3806 172.838 12.7186 172.765 13.3101 172.64C13.9015 172.511 14.7465 172.314 15.7443 172.023C16.7462 171.749 17.897 171.354 19.1161 170.898C20.3312 170.431 21.5987 169.87 22.846 169.253C24.0853 168.624 25.2923 167.938 26.3988 167.245C27.4932 166.539 28.4991 165.85 29.32 165.208C30.1488 164.583 30.8288 164.007 31.2794 163.615C31.7301 163.22 31.9916 162.99 31.9916 162.99C32.1928 162.817 32.2089 162.515 32.0319 162.317C31.8548 162.119 31.549 162.103 31.3478 162.281C31.3277 162.285 31.3237 162.289 31.3197 162.293Z" fill="#4AA5A2"/>
<path d="M28.7767 164.946C28.7767 164.946 28.8169 165.487 28.7566 166.261C28.7043 167.047 28.5192 168.096 28.1893 169.108C27.8593 170.12 27.3966 171.088 26.958 171.761C26.5275 172.443 26.1614 172.842 26.1614 172.842C26.1614 172.842 26.5476 172.463 27.0224 171.806C27.5053 171.152 28.0364 170.201 28.4307 169.193C28.825 168.18 29.0865 167.12 29.1871 166.305C29.2998 165.483 29.2877 164.946 29.2877 164.946V164.922C29.2837 164.781 29.167 164.668 29.0222 164.668C28.8773 164.672 28.7646 164.789 28.7646 164.93C28.7727 164.938 28.7727 164.942 28.7767 164.946Z" fill="#4AA5A2"/>
<path d="M22.8984 168.777C22.8984 168.777 22.8541 169.213 22.7173 169.834C22.5845 170.463 22.3431 171.294 22.0172 172.096C21.6913 172.895 21.2769 173.665 20.8826 174.185C20.4963 174.713 20.1543 175 20.1543 175C20.1543 175 20.5164 174.742 20.9469 174.238C21.3895 173.742 21.8683 172.995 22.2667 172.205C22.661 171.415 22.9789 170.584 23.1639 169.947C23.3571 169.302 23.4376 168.874 23.4376 168.874L23.4416 168.858C23.4697 168.709 23.3691 168.568 23.2203 168.543C23.0714 168.515 22.9266 168.616 22.8984 168.761C22.9024 168.765 22.9024 168.769 22.8984 168.777Z" fill="#4AA5A2"/>
<path d="M17.3696 171.306C17.3696 171.306 17.273 171.604 17.0839 172.019C16.8948 172.443 16.6011 172.987 16.251 173.503C15.901 174.02 15.4946 174.5 15.1486 174.818C14.8066 175.141 14.541 175.318 14.541 175.318C14.541 175.318 14.8186 175.161 15.1848 174.858C15.555 174.56 15.9976 174.1 16.3878 173.604C16.7781 173.104 17.1201 172.568 17.3414 172.144C17.5708 171.721 17.6834 171.427 17.6834 171.427L17.6875 171.415C17.7237 171.33 17.6794 171.229 17.5909 171.197C17.5024 171.165 17.4058 171.205 17.3696 171.294C17.3736 171.298 17.3696 171.302 17.3696 171.306Z" fill="#4AA5A2"/>
<path d="M29.0342 164.777C29.0342 164.777 28.5835 164.466 27.815 164.095C27.0586 163.728 26.0044 163.357 24.9181 163.128C23.8317 162.898 22.7212 162.809 21.8923 162.841C21.0634 162.861 20.5203 162.966 20.5203 162.966C20.5203 162.966 21.0675 162.894 21.8923 162.922C22.7131 162.938 23.8035 163.091 24.8577 163.378C25.9079 163.664 26.9138 164.087 27.6139 164.483C28.3099 164.866 28.7445 165.204 28.7445 165.204C28.8572 165.293 29.0221 165.273 29.1106 165.164C29.1992 165.051 29.179 164.89 29.0664 164.805C29.0624 164.801 29.0583 164.801 29.0543 164.797L29.0342 164.777Z" fill="#4AA5A2"/>
<path d="M23.2844 168.576C23.2844 168.576 22.878 168.398 22.2262 168.197C21.5824 167.991 20.7093 167.781 19.8241 167.66C18.9389 167.543 18.0376 167.515 17.3737 167.596C16.7058 167.664 16.2874 167.813 16.2874 167.813C16.2874 167.813 16.7179 167.697 17.3818 167.68C18.0416 167.652 18.9228 167.745 19.7758 167.926C20.6328 168.112 21.4657 168.378 22.0693 168.624C22.6688 168.862 23.0591 169.068 23.0591 169.068C23.1918 169.14 23.3608 169.088 23.4333 168.955C23.5057 168.822 23.4534 168.656 23.3206 168.588C23.3166 168.584 23.3085 168.58 23.3005 168.58L23.2844 168.576Z" fill="#4AA5A2"/>
<path d="M17.5789 171.205C17.5789 171.205 17.2771 171.112 16.7943 171.019C16.3195 170.927 15.6798 170.85 15.04 170.834C14.4003 170.822 13.7605 170.874 13.2897 170.967C12.819 171.056 12.5212 171.173 12.5212 171.173C12.5212 171.173 12.827 171.08 13.2978 171.019C13.7686 170.955 14.4003 170.947 15.0279 170.999C15.6556 171.056 16.2753 171.173 16.7259 171.294C17.1765 171.411 17.4703 171.524 17.4703 171.524C17.5588 171.556 17.6553 171.515 17.6916 171.427C17.7238 171.342 17.6835 171.241 17.595 171.209C17.591 171.209 17.5869 171.205 17.5829 171.205H17.5789Z" fill="#4AA5A2"/>
<path d="M0.53107 129.375C3.84651 131.415 9.27434 132.395 12.8352 133.984C16.3961 135.573 19.9248 137.387 22.7252 140.069C25.5257 142.751 27.5415 146.433 27.4369 150.276C27.3322 154.119 24.741 157.99 20.9428 158.901C17.744 159.672 14.3924 158.325 11.6644 156.506C2.96535 150.699 -1.63362 139.501 0.53107 129.375Z" fill="#65D1CA"/>
<path d="M26.1614 154.74C26.1614 154.74 25.7711 154.542 25.0911 154.195C24.4071 153.844 23.4696 153.344 22.351 152.671C21.7877 152.344 21.1963 151.965 20.5726 151.562C19.9449 151.163 19.3092 150.703 18.6413 150.239C17.3296 149.284 15.9736 148.203 14.67 147.062C13.3824 145.904 12.1432 144.69 11.0367 143.501C10.4975 142.896 9.96238 142.319 9.49162 141.743C9.01281 141.17 8.56619 140.63 8.1759 140.109C7.3752 139.085 6.75557 138.194 6.33712 137.565C5.91866 136.936 5.67725 136.573 5.67725 136.573C5.67725 136.573 5.90659 136.94 6.3009 137.585C6.69924 138.23 7.29071 139.142 8.05519 140.194C8.42939 140.73 8.85589 141.287 9.3186 141.88C9.76924 142.476 10.2883 143.069 10.8073 143.698C11.8776 144.932 13.0807 146.199 14.34 147.408C15.6155 148.606 16.9433 149.747 18.2389 150.755C18.8988 151.247 19.5224 151.739 20.1461 152.163C20.7657 152.594 21.3532 153.002 21.9125 153.352C23.0109 154.07 23.9846 154.631 24.6485 154.998C25.3164 155.365 25.6987 155.578 25.6987 155.578C25.932 155.707 26.2258 155.627 26.3585 155.397C26.4913 155.167 26.4068 154.877 26.1734 154.748C26.1734 154.748 26.1654 154.744 26.1614 154.74Z" fill="#4AA5A2"/>
<path d="M21.9808 152.772C21.9808 152.772 21.3411 153.034 20.3634 153.276C19.3776 153.53 18.0216 153.724 16.6536 153.744C15.2856 153.76 13.9176 153.595 12.9157 153.349C12.4127 153.232 12.0063 153.103 11.7207 153.002C11.439 152.897 11.2781 152.84 11.2781 152.84C11.2781 152.84 11.435 152.905 11.7126 153.022C11.9903 153.135 12.3966 153.288 12.8956 153.425C13.8894 153.724 15.2614 153.953 16.6496 154.002C18.0377 154.05 19.4339 153.913 20.4599 153.699C20.9709 153.603 21.4095 153.482 21.6952 153.397C21.9849 153.308 22.1458 153.26 22.1458 153.26L22.1579 153.256C22.2947 153.215 22.3711 153.07 22.3309 152.933C22.2866 152.796 22.1418 152.723 22.005 152.764C21.9969 152.768 21.9889 152.772 21.9808 152.772Z" fill="#4AA5A2"/>
<path d="M14.9195 147.408C14.9195 147.408 14.3723 147.525 13.5555 147.614C12.7306 147.707 11.6201 147.751 10.5096 147.683C9.40312 147.61 8.29663 147.429 7.50399 147.166C7.10565 147.041 6.78376 146.908 6.56246 146.804C6.34519 146.695 6.22046 146.63 6.22046 146.63C6.22046 146.63 6.34117 146.699 6.55039 146.824C6.76364 146.941 7.07748 147.098 7.4718 147.247C8.2564 147.558 9.36289 147.812 10.4814 147.953C11.604 148.09 12.7387 148.114 13.5877 148.07C14.4447 148.029 14.9999 147.945 14.9999 147.945L15.016 147.941C15.1649 147.917 15.2695 147.779 15.2454 147.63C15.2212 147.481 15.0804 147.38 14.9315 147.404C14.9275 147.404 14.9235 147.404 14.9195 147.408Z" fill="#4AA5A2"/>
<path d="M9.5802 141.884C9.5802 141.884 9.17784 141.888 8.59039 141.831C7.99893 141.779 7.2103 141.642 6.44179 141.436C5.67329 141.227 4.9249 140.936 4.39781 140.658C3.86669 140.384 3.54883 140.138 3.54883 140.138C3.54883 140.138 3.85462 140.4 4.37367 140.702C4.88869 141.013 5.62903 141.343 6.39351 141.598C7.16202 141.848 7.95467 142.025 8.55821 142.114C9.16577 142.206 9.56813 142.223 9.56813 142.223H9.5802C9.67274 142.227 9.75321 142.154 9.75724 142.061C9.76126 141.969 9.68884 141.892 9.59227 141.888C9.58825 141.884 9.58422 141.884 9.5802 141.884Z" fill="#4AA5A2"/>
<path d="M22.2022 152.929C22.2022 152.929 22.2425 152.764 22.3149 152.474C22.3833 152.187 22.4798 151.74 22.5402 151.227C22.6891 150.191 22.7172 148.8 22.5684 147.425C22.4114 146.05 22.0815 144.707 21.7113 143.739C21.5343 143.255 21.3573 142.86 21.2245 142.59C21.0877 142.319 21.0112 142.166 21.0112 142.166C21.0112 142.166 21.0796 142.323 21.2044 142.598C21.321 142.872 21.482 143.271 21.6349 143.763C21.9528 144.739 22.2183 146.086 22.3068 147.445C22.3913 148.804 22.2988 150.163 22.1056 151.159C22.0171 151.663 21.9165 152.054 21.832 152.344C21.7475 152.631 21.6952 152.796 21.6952 152.796C21.655 152.933 21.7315 153.074 21.8723 153.115C22.0091 153.155 22.1539 153.078 22.1982 152.941C22.2022 152.937 22.2022 152.933 22.2022 152.929Z" fill="#4AA5A2"/>
<path d="M15.2334 147.699C15.2334 147.699 15.2898 147.15 15.2777 146.304C15.2737 145.465 15.1811 144.352 14.9799 143.259C14.7747 142.166 14.4529 141.093 14.0907 140.343C13.9177 139.964 13.7407 139.666 13.6079 139.46C13.4711 139.259 13.3906 139.146 13.3906 139.146C13.3906 139.146 13.463 139.263 13.5838 139.472C13.7004 139.682 13.8574 139.992 14.0062 140.376C14.3161 141.142 14.5695 142.214 14.7023 143.299C14.8351 144.384 14.8552 145.481 14.811 146.295C14.7707 147.102 14.6822 147.65 14.6822 147.65C14.6581 147.8 14.7627 147.937 14.9115 147.961C15.0604 147.985 15.2053 147.884 15.2254 147.735C15.2254 147.731 15.2254 147.723 15.2294 147.719L15.2334 147.699Z" fill="#4AA5A2"/>
<path d="M9.74122 142.049C9.74122 142.049 9.73317 141.654 9.65672 141.053C9.5843 140.456 9.42336 139.674 9.18596 138.912C8.94857 138.15 8.63071 137.416 8.32894 136.899C8.03119 136.379 7.77368 136.073 7.77368 136.073C7.77368 136.073 8.0151 136.391 8.28065 136.924C8.55426 137.452 8.82786 138.194 9.021 138.956C9.21413 139.718 9.33081 140.497 9.37105 141.081C9.41531 141.662 9.39921 142.057 9.39921 142.057C9.39519 142.15 9.46762 142.227 9.56418 142.231C9.65673 142.235 9.7372 142.162 9.74122 142.069C9.74122 142.065 9.74122 142.065 9.74122 142.061V142.049Z" fill="#4AA5A2"/>
<path d="M45.209 197.978C47.9048 196.324 50.5885 192.792 53.0389 190.804C55.4933 188.819 58.1006 186.932 61.0821 185.872C64.0636 184.811 67.4917 184.654 70.276 186.069C73.0603 187.485 74.9595 190.687 74.2594 193.715C73.6679 196.268 71.467 198.191 69.1454 199.502C61.7379 203.684 51.856 203.055 45.209 197.978Z" fill="#65D1CA"/>
<path d="M73.0563 188.481C73.0563 188.481 72.7706 188.69 72.2717 189.057C71.7687 189.424 71.0686 189.92 70.1713 190.485C69.7287 190.775 69.2419 191.066 68.7188 191.368C68.1998 191.679 67.6325 191.973 67.0531 192.288C65.8822 192.892 64.5987 193.485 63.295 194.022C61.9833 194.542 60.6475 195.006 59.376 195.381C58.7363 195.554 58.1207 195.739 57.5292 195.877C56.9377 196.022 56.3785 196.151 55.8554 196.252C54.8133 196.469 53.9402 196.602 53.3245 196.683C52.7089 196.764 52.3589 196.812 52.3589 196.812C52.3589 196.812 52.713 196.78 53.3286 196.723C53.9442 196.663 54.8294 196.566 55.8795 196.389C56.4066 196.312 56.9739 196.203 57.5735 196.082C58.173 195.969 58.8007 195.808 59.4485 195.659C60.7441 195.328 62.1081 194.917 63.456 194.445C64.7958 193.957 66.1196 193.409 67.3347 192.84C67.9342 192.542 68.5217 192.267 69.0608 191.973C69.604 191.683 70.115 191.408 70.5777 191.13C71.5032 190.598 72.2717 190.098 72.7827 189.755C73.2977 189.408 73.5914 189.211 73.5914 189.211C73.8046 189.07 73.857 188.787 73.7161 188.582C73.5753 188.376 73.2856 188.327 73.0764 188.469C73.0643 188.473 73.0603 188.481 73.0563 188.481Z" fill="#4AA5A2"/>
<path d="M70.1031 190.832C70.1031 190.832 70.0669 191.38 69.8939 192.158C69.7289 192.949 69.3869 193.985 68.9081 194.965C68.4293 195.945 67.8177 196.869 67.2785 197.498C66.7434 198.131 66.3169 198.494 66.3169 198.494C66.3169 198.494 66.7635 198.159 67.3349 197.546C67.9143 196.945 68.5862 196.046 69.1294 195.074C69.6726 194.102 70.083 193.058 70.3003 192.251C70.5296 191.433 70.594 190.892 70.594 190.892L70.598 190.868C70.6141 190.735 70.5175 190.614 70.3807 190.602C70.2439 190.59 70.1192 190.687 70.1031 190.82C70.1031 190.824 70.1031 190.828 70.1031 190.832Z" fill="#4AA5A2"/>
<path d="M63.6088 193.993C63.6088 193.993 63.5002 194.425 63.2709 195.038C63.0455 195.659 62.6794 196.465 62.2328 197.236C61.7862 198.002 61.255 198.732 60.7802 199.208C60.3135 199.691 59.9272 199.941 59.9272 199.941C59.9272 199.941 60.3296 199.724 60.8366 199.264C61.3516 198.816 61.9431 198.119 62.4581 197.369C62.9691 196.619 63.4036 195.816 63.6813 195.195C63.9669 194.566 64.1078 194.143 64.1078 194.143L64.1118 194.126C64.1561 193.989 64.0796 193.848 63.9428 193.804C63.806 193.764 63.6571 193.84 63.6129 193.973C63.6129 193.981 63.6088 193.985 63.6088 193.993Z" fill="#4AA5A2"/>
<path d="M57.642 195.873C57.642 195.873 57.5011 196.163 57.2476 196.562C56.9982 196.965 56.6159 197.482 56.1894 197.961C55.7589 198.437 55.2801 198.873 54.8858 199.155C54.4915 199.441 54.1978 199.583 54.1978 199.583C54.1978 199.583 54.4995 199.458 54.914 199.195C55.3284 198.937 55.8434 198.526 56.3101 198.07C56.7729 197.611 57.1953 197.111 57.481 196.707C57.7707 196.304 57.9276 196.026 57.9276 196.026L57.9317 196.018C57.9759 195.941 57.9478 195.844 57.8673 195.8C57.7908 195.76 57.6902 195.788 57.646 195.864C57.646 195.869 57.642 195.869 57.642 195.873Z" fill="#4AA5A2"/>
<path d="M70.3565 190.703C70.3565 190.703 69.9461 190.332 69.2219 189.868C68.5137 189.404 67.4958 188.896 66.4295 188.529C65.3632 188.166 64.2527 187.936 63.4118 187.864C62.5709 187.783 62.0076 187.819 62.0076 187.819C62.0076 187.819 62.5749 187.811 63.4038 187.936C64.2326 188.053 65.319 188.34 66.341 188.751C67.367 189.166 68.3246 189.715 68.9805 190.199C69.6323 190.671 70.0266 191.066 70.0266 191.066C70.1232 191.162 70.2801 191.162 70.3766 191.066C70.4772 190.973 70.4772 190.816 70.3847 190.723C70.3807 190.719 70.3807 190.719 70.3766 190.715L70.3565 190.703Z" fill="#4AA5A2"/>
<path d="M63.9951 193.848C63.9951 193.848 63.6088 193.618 62.9812 193.332C62.3615 193.046 61.5085 192.727 60.6274 192.493C59.7462 192.263 58.8449 192.122 58.1609 192.122C57.4769 192.11 57.0303 192.211 57.0303 192.211C57.0303 192.211 57.4849 192.146 58.1569 192.203C58.8288 192.251 59.706 192.453 60.5509 192.739C61.3919 193.03 62.2006 193.401 62.78 193.719C63.3554 194.034 63.7215 194.288 63.7215 194.288C63.8382 194.368 64.0032 194.34 64.0877 194.223C64.1722 194.106 64.148 193.945 64.0273 193.864C64.0233 193.86 64.0193 193.856 64.0112 193.856L63.9951 193.848Z" fill="#4AA5A2"/>
<path d="M57.8511 195.804C57.8511 195.804 57.5573 195.671 57.0866 195.518C56.6198 195.364 55.9841 195.207 55.3403 195.114C54.6925 195.022 54.0407 194.993 53.5498 195.034C53.063 195.066 52.7451 195.147 52.7451 195.147C52.7451 195.147 53.067 195.09 53.5539 195.086C54.0407 195.078 54.6805 195.143 55.3082 195.276C55.9358 195.409 56.5474 195.598 56.986 195.776C57.4246 195.949 57.7102 196.098 57.7102 196.098C57.7907 196.139 57.8873 196.11 57.9315 196.034C57.9758 195.957 57.9476 195.86 57.8672 195.82C57.8631 195.82 57.8631 195.816 57.8591 195.816L57.8511 195.804Z" fill="#4AA5A2"/>
<path d="M103.588 216.927C106.424 215.189 109.249 211.467 111.832 209.378C114.415 207.289 117.159 205.305 120.298 204.188C123.436 203.071 127.045 202.905 129.974 204.397C132.904 205.889 134.903 209.257 134.167 212.442C133.543 215.128 131.23 217.153 128.783 218.532C120.986 222.935 110.585 222.27 103.588 216.927Z" fill="#65D1CA"/>
<path d="M132.899 206.934C132.899 206.934 132.598 207.156 132.074 207.543C131.543 207.93 130.807 208.45 129.866 209.047C129.403 209.349 128.884 209.656 128.337 209.979C127.793 210.305 127.194 210.616 126.586 210.946C125.351 211.583 124.003 212.209 122.627 212.773C121.247 213.322 119.839 213.81 118.499 214.205C117.827 214.39 117.179 214.584 116.555 214.725C115.932 214.878 115.344 215.015 114.793 215.12C113.699 215.346 112.777 215.487 112.13 215.576C111.482 215.66 111.112 215.709 111.112 215.709C111.112 215.709 111.482 215.673 112.134 215.616C112.781 215.556 113.711 215.451 114.817 215.265C115.373 215.185 115.968 215.068 116.6 214.943C117.231 214.826 117.891 214.656 118.575 214.499C119.939 214.152 121.376 213.717 122.792 213.221C124.204 212.709 125.592 212.132 126.872 211.531C127.504 211.217 128.123 210.93 128.691 210.62C129.262 210.317 129.801 210.023 130.284 209.733C131.258 209.172 132.07 208.648 132.606 208.285C133.145 207.918 133.455 207.712 133.455 207.712C133.676 207.563 133.736 207.265 133.587 207.051C133.438 206.837 133.137 206.781 132.915 206.934C132.911 206.926 132.903 206.93 132.899 206.934Z" fill="#4AA5A2"/>
<path d="M129.789 209.406C129.789 209.406 129.749 209.982 129.568 210.805C129.395 211.636 129.033 212.725 128.53 213.761C128.027 214.793 127.383 215.765 126.812 216.427C126.249 217.096 125.802 217.475 125.802 217.475C125.802 217.475 126.273 217.12 126.876 216.479C127.488 215.846 128.192 214.898 128.763 213.874C129.335 212.85 129.765 211.753 129.995 210.902C130.236 210.043 130.304 209.47 130.304 209.47L130.308 209.446C130.324 209.305 130.224 209.18 130.079 209.164C129.934 209.148 129.805 209.253 129.789 209.394C129.789 209.398 129.789 209.402 129.789 209.406Z" fill="#4AA5A2"/>
<path d="M122.957 212.733C122.957 212.733 122.84 213.189 122.603 213.834C122.366 214.487 121.979 215.338 121.513 216.149C121.042 216.955 120.483 217.721 119.984 218.225C119.489 218.737 119.086 218.996 119.086 218.996C119.086 218.996 119.509 218.766 120.044 218.286C120.587 217.814 121.207 217.08 121.75 216.29C122.289 215.499 122.744 214.656 123.038 213.999C123.339 213.338 123.488 212.89 123.488 212.89L123.492 212.874C123.541 212.733 123.46 212.58 123.315 212.535C123.17 212.491 123.013 212.572 122.965 212.713C122.957 212.721 122.957 212.729 122.957 212.733Z" fill="#4AA5A2"/>
<path d="M116.676 214.713C116.676 214.713 116.527 215.019 116.262 215.439C115.996 215.866 115.598 216.407 115.147 216.911C114.697 217.411 114.19 217.87 113.775 218.165C113.361 218.463 113.051 218.616 113.051 218.616C113.051 218.616 113.369 218.483 113.803 218.209C114.242 217.939 114.781 217.507 115.272 217.024C115.759 216.54 116.206 216.011 116.503 215.592C116.809 215.169 116.974 214.874 116.974 214.874L116.978 214.866C117.022 214.785 116.994 214.685 116.914 214.64C116.829 214.596 116.729 214.628 116.68 214.709C116.676 214.709 116.676 214.709 116.676 214.713Z" fill="#4AA5A2"/>
<path d="M130.059 209.273C130.059 209.273 129.628 208.882 128.864 208.394C128.115 207.902 127.049 207.373 125.927 206.986C124.804 206.603 123.637 206.361 122.748 206.289C121.863 206.204 121.267 206.244 121.267 206.244C121.267 206.244 121.863 206.236 122.736 206.369C123.609 206.49 124.752 206.793 125.83 207.228C126.908 207.668 127.918 208.24 128.61 208.753C129.298 209.249 129.713 209.664 129.713 209.664C129.813 209.765 129.978 209.765 130.083 209.664C130.188 209.563 130.192 209.402 130.091 209.301C130.087 209.297 130.087 209.297 130.083 209.293L130.059 209.273Z" fill="#4AA5A2"/>
<path d="M123.363 212.58C123.363 212.58 122.957 212.338 122.297 212.039C121.645 211.737 120.744 211.402 119.823 211.156C118.897 210.914 117.944 210.769 117.223 210.765C116.503 210.753 116.032 210.858 116.032 210.858C116.032 210.858 116.511 210.789 117.215 210.85C117.924 210.902 118.849 211.112 119.734 211.414C120.619 211.717 121.472 212.108 122.08 212.447C122.683 212.777 123.07 213.043 123.07 213.043C123.194 213.128 123.367 213.1 123.456 212.979C123.545 212.858 123.516 212.688 123.396 212.6C123.392 212.596 123.384 212.592 123.38 212.588L123.363 212.58Z" fill="#4AA5A2"/>
<path d="M116.897 214.64C116.897 214.64 116.588 214.499 116.093 214.342C115.602 214.181 114.934 214.015 114.254 213.914C113.574 213.818 112.886 213.789 112.371 213.83C111.856 213.866 111.522 213.947 111.522 213.947C111.522 213.947 111.86 213.886 112.371 213.882C112.882 213.874 113.558 213.943 114.218 214.08C114.878 214.217 115.521 214.419 115.984 214.608C116.447 214.79 116.745 214.947 116.745 214.947C116.829 214.991 116.93 214.959 116.978 214.878C117.022 214.798 116.994 214.697 116.91 214.652C116.906 214.652 116.906 214.648 116.902 214.648L116.897 214.64Z" fill="#4AA5A2"/>
<path d="M209.183 221.641C212.019 219.903 214.844 216.181 217.427 214.092C220.01 212.003 222.754 210.019 225.893 208.902C229.031 207.785 232.64 207.619 235.57 209.111C238.499 210.603 240.499 213.971 239.762 217.156C239.139 219.842 236.825 221.867 234.379 223.246C226.581 227.645 216.176 226.984 209.183 221.641Z" fill="#65D1CA"/>
<path d="M238.491 211.648C238.491 211.648 238.189 211.87 237.666 212.257C237.135 212.644 236.398 213.164 235.457 213.761C234.994 214.064 234.475 214.37 233.928 214.693C233.385 215.019 232.785 215.33 232.178 215.66C230.942 216.298 229.594 216.923 228.218 217.487C226.838 218.036 225.43 218.524 224.09 218.919C223.418 219.104 222.77 219.298 222.147 219.439C221.523 219.592 220.936 219.729 220.384 219.834C219.29 220.06 218.369 220.201 217.721 220.29C217.073 220.375 216.703 220.423 216.703 220.423C216.703 220.423 217.073 220.387 217.725 220.33C218.373 220.27 219.302 220.165 220.409 219.979C220.964 219.899 221.559 219.782 222.191 219.657C222.823 219.54 223.483 219.37 224.167 219.213C225.531 218.866 226.967 218.431 228.383 217.935C229.796 217.423 231.188 216.846 232.463 216.245C233.095 215.931 233.715 215.644 234.282 215.334C234.853 215.031 235.392 214.737 235.875 214.447C236.849 213.886 237.662 213.362 238.197 212.999C238.736 212.632 239.046 212.426 239.046 212.426C239.267 212.277 239.328 211.979 239.179 211.765C239.03 211.551 238.728 211.495 238.503 211.648C238.503 211.64 238.495 211.644 238.491 211.648Z" fill="#4AA5A2"/>
<path d="M235.38 214.12C235.38 214.12 235.34 214.696 235.159 215.519C234.986 216.35 234.624 217.439 234.121 218.475C233.618 219.507 232.974 220.479 232.403 221.141C231.84 221.81 231.393 222.189 231.393 222.189C231.393 222.189 231.864 221.834 232.467 221.193C233.079 220.56 233.783 219.612 234.354 218.588C234.926 217.564 235.356 216.467 235.586 215.616C235.827 214.757 235.895 214.184 235.895 214.184L235.899 214.16C235.916 214.019 235.815 213.894 235.67 213.878C235.525 213.862 235.397 213.967 235.38 214.108C235.384 214.108 235.38 214.116 235.38 214.12Z" fill="#4AA5A2"/>
<path d="M228.549 217.447C228.549 217.447 228.432 217.903 228.195 218.548C227.957 219.201 227.571 220.052 227.104 220.862C226.633 221.669 226.074 222.435 225.575 222.939C225.08 223.451 224.678 223.71 224.678 223.71C224.678 223.71 225.1 223.48 225.636 223C226.179 222.528 226.798 221.794 227.342 221.004C227.881 220.213 228.335 219.37 228.629 218.713C228.931 218.052 229.08 217.604 229.08 217.604L229.084 217.588C229.132 217.447 229.052 217.294 228.907 217.249C228.762 217.205 228.605 217.286 228.557 217.427C228.553 217.435 228.549 217.439 228.549 217.447Z" fill="#4AA5A2"/>
<path d="M222.268 219.427C222.268 219.427 222.119 219.733 221.853 220.153C221.588 220.58 221.189 221.121 220.739 221.625C220.288 222.125 219.781 222.584 219.367 222.879C218.952 223.177 218.643 223.33 218.643 223.33C218.643 223.33 218.96 223.197 219.395 222.923C219.834 222.653 220.373 222.221 220.864 221.738C221.35 221.254 221.797 220.725 222.095 220.306C222.401 219.883 222.566 219.588 222.566 219.588L222.57 219.58C222.614 219.499 222.586 219.399 222.505 219.354C222.421 219.31 222.32 219.342 222.272 219.423C222.272 219.419 222.268 219.423 222.268 219.427Z" fill="#4AA5A2"/>
<path d="M235.65 213.983C235.65 213.983 235.219 213.592 234.455 213.104C233.707 212.612 232.64 212.083 231.518 211.696C230.395 211.313 229.228 211.071 228.339 210.999C227.454 210.914 226.858 210.954 226.858 210.954C226.858 210.954 227.454 210.946 228.327 211.079C229.2 211.2 230.343 211.503 231.421 211.938C232.499 212.378 233.509 212.95 234.201 213.463C234.89 213.959 235.304 214.374 235.304 214.374C235.405 214.475 235.569 214.475 235.674 214.374C235.779 214.273 235.783 214.112 235.682 214.011C235.678 214.007 235.678 214.007 235.674 214.003L235.65 213.983Z" fill="#4AA5A2"/>
<path d="M228.955 217.294C228.955 217.294 228.548 217.052 227.889 216.753C227.237 216.451 226.335 216.116 225.414 215.87C224.489 215.628 223.535 215.483 222.815 215.479C222.095 215.467 221.624 215.572 221.624 215.572C221.624 215.572 222.103 215.503 222.807 215.564C223.515 215.616 224.44 215.826 225.326 216.128C226.211 216.431 227.064 216.822 227.671 217.16C228.275 217.491 228.661 217.757 228.661 217.757C228.786 217.842 228.959 217.814 229.047 217.693C229.136 217.572 229.108 217.402 228.987 217.314C228.983 217.31 228.975 217.306 228.971 217.302L228.955 217.294Z" fill="#4AA5A2"/>
<path d="M222.489 219.354C222.489 219.354 222.179 219.213 221.684 219.056C221.193 218.895 220.525 218.729 219.845 218.628C219.165 218.532 218.477 218.503 217.962 218.544C217.447 218.58 217.113 218.661 217.113 218.661C217.113 218.661 217.451 218.6 217.962 218.596C218.473 218.588 219.149 218.657 219.809 218.794C220.469 218.931 221.113 219.132 221.575 219.322C222.038 219.503 222.336 219.661 222.336 219.661C222.42 219.705 222.521 219.673 222.569 219.592C222.614 219.511 222.585 219.411 222.501 219.366C222.497 219.366 222.497 219.362 222.493 219.362L222.489 219.354Z" fill="#4AA5A2"/>
<path d="M234.954 187.356C237.968 187.727 242.188 186.735 245.242 186.722C248.296 186.714 251.398 186.868 254.239 187.831C257.08 188.795 259.659 190.678 260.757 193.32C261.856 195.961 261.164 199.377 258.701 201.159C256.625 202.659 253.796 202.772 251.27 202.369C243.218 201.087 236.483 194.889 234.954 187.356Z" fill="#65D1CA"/>
<path d="M261.208 196.679C261.208 196.679 260.866 196.667 260.27 196.639C259.667 196.61 258.842 196.562 257.832 196.449C257.329 196.401 256.786 196.328 256.21 196.243C255.635 196.167 255.035 196.05 254.412 195.941C253.173 195.699 251.865 195.38 250.577 195.009C249.294 194.622 248.026 194.179 246.868 193.715C246.292 193.469 245.729 193.247 245.214 192.997C244.695 192.759 244.204 192.525 243.765 192.296C242.872 191.848 242.156 191.433 241.657 191.138C241.158 190.84 240.876 190.67 240.876 190.67C240.876 190.67 241.154 190.852 241.637 191.17C242.12 191.485 242.824 191.929 243.697 192.412C244.128 192.663 244.61 192.913 245.121 193.175C245.628 193.445 246.184 193.691 246.751 193.961C247.898 194.477 249.153 194.969 250.432 195.413C251.716 195.84 253.024 196.211 254.271 196.506C254.895 196.639 255.498 196.784 256.078 196.885C256.657 196.994 257.204 197.09 257.715 197.159C258.729 197.312 259.606 197.401 260.198 197.449C260.793 197.498 261.135 197.526 261.135 197.526C261.381 197.546 261.602 197.373 261.63 197.143C261.658 196.913 261.485 196.707 261.24 196.691C261.22 196.679 261.212 196.679 261.208 196.679Z" fill="#4AA5A2"/>
<path d="M257.558 196.659C257.558 196.659 257.176 197.034 256.549 197.498C255.921 197.973 255.004 198.522 254.026 198.953C253.048 199.385 252.01 199.695 251.213 199.837C250.417 199.986 249.877 199.998 249.877 199.998C249.877 199.998 250.417 200.014 251.225 199.905C252.034 199.808 253.096 199.546 254.118 199.159C255.136 198.772 256.106 198.256 256.786 197.8C257.478 197.34 257.876 196.989 257.876 196.989L257.892 196.973C257.989 196.885 257.997 196.743 257.909 196.655C257.82 196.566 257.667 196.562 257.571 196.651C257.563 196.651 257.558 196.655 257.558 196.659Z" fill="#4AA5A2"/>
<path d="M250.823 195.167C250.823 195.167 250.465 195.417 249.905 195.727C249.342 196.046 248.558 196.417 247.737 196.715C246.916 197.01 246.067 197.227 245.415 197.296C244.763 197.377 244.325 197.328 244.325 197.328C244.325 197.328 244.755 197.405 245.419 197.369C246.083 197.344 246.96 197.183 247.813 196.941C248.666 196.695 249.499 196.368 250.103 196.082C250.714 195.796 251.088 195.57 251.088 195.57L251.105 195.562C251.225 195.489 251.261 195.34 251.189 195.231C251.117 195.122 250.96 195.09 250.839 195.163C250.835 195.163 250.831 195.167 250.823 195.167Z" fill="#4AA5A2"/>
<path d="M245.299 193.062C245.299 193.062 245.009 193.191 244.57 193.332C244.128 193.477 243.52 193.63 242.901 193.727C242.281 193.824 241.653 193.856 241.187 193.832C240.72 193.808 240.414 193.743 240.414 193.743C240.414 193.743 240.712 193.828 241.183 193.88C241.649 193.937 242.285 193.937 242.917 193.876C243.548 193.816 244.176 193.695 244.639 193.574C245.11 193.453 245.403 193.34 245.403 193.34L245.411 193.336C245.492 193.304 245.536 193.219 245.504 193.142C245.476 193.066 245.383 193.03 245.303 193.062C245.303 193.058 245.299 193.058 245.299 193.062Z" fill="#4AA5A2"/>
<path d="M257.824 196.715C257.824 196.715 257.767 196.207 257.542 195.453C257.329 194.703 256.923 193.747 256.387 192.864C255.852 191.981 255.196 191.17 254.633 190.63C254.078 190.082 253.643 189.783 253.643 189.783C253.643 189.783 254.058 190.106 254.577 190.678C255.104 191.243 255.699 192.082 256.174 192.977C256.645 193.872 256.987 194.828 257.148 195.558C257.317 196.28 257.345 196.792 257.345 196.792C257.353 196.917 257.466 197.01 257.598 196.998C257.731 196.985 257.832 196.877 257.824 196.752C257.824 196.748 257.824 196.743 257.824 196.739V196.715Z" fill="#4AA5A2"/>
<path d="M251.197 195.288C251.197 195.288 251.069 194.901 250.799 194.328C250.537 193.759 250.127 193.033 249.64 192.356C249.153 191.678 248.59 191.053 248.095 190.654C247.608 190.247 247.222 190.061 247.222 190.061C247.222 190.061 247.592 190.275 248.039 190.711C248.493 191.138 248.996 191.791 249.423 192.489C249.845 193.187 250.191 193.925 250.401 194.493C250.614 195.054 250.714 195.449 250.714 195.449C250.747 195.578 250.883 195.651 251.02 195.618C251.157 195.582 251.242 195.453 251.209 195.324C251.209 195.32 251.205 195.312 251.205 195.308L251.197 195.288Z" fill="#4AA5A2"/>
<path d="M245.496 193.134C245.496 193.134 245.371 192.868 245.125 192.485C244.888 192.102 244.53 191.622 244.124 191.179C243.717 190.735 243.263 190.336 242.884 190.082C242.51 189.824 242.229 189.695 242.229 189.695C242.229 189.695 242.498 189.84 242.852 190.118C243.21 190.392 243.629 190.816 243.999 191.275C244.369 191.735 244.687 192.227 244.892 192.614C245.097 192.993 245.206 193.267 245.206 193.267C245.234 193.344 245.327 193.38 245.407 193.348C245.488 193.316 245.532 193.231 245.5 193.155C245.5 193.151 245.496 193.151 245.496 193.147V193.134Z" fill="#4AA5A2"/>
<path d="M161.515 229C161.149 225.815 158.908 221.75 158.099 218.624C157.286 215.495 156.65 212.277 157.005 209.116C157.359 205.954 158.823 202.817 161.539 200.998C164.255 199.179 168.327 198.994 170.999 201.05C173.252 202.784 174.117 205.656 174.322 208.345C174.974 216.931 169.687 225.46 161.515 229Z" fill="#65D1CA"/>
<path d="M165.241 199.655C165.241 199.655 165.313 200.01 165.442 200.627C165.571 201.252 165.732 202.111 165.865 203.176C165.945 203.704 166.001 204.28 166.058 204.889C166.122 205.498 166.146 206.144 166.186 206.809C166.235 208.144 166.219 209.563 166.13 210.983C166.026 212.398 165.857 213.814 165.631 215.124C165.502 215.777 165.394 216.415 165.249 217.007C165.112 217.604 164.979 218.165 164.831 218.677C164.553 219.709 164.271 220.552 164.066 221.141C163.857 221.73 163.736 222.064 163.736 222.064C163.736 222.064 163.869 221.734 164.106 221.157C164.34 220.576 164.657 219.742 164.979 218.721C165.152 218.213 165.309 217.657 165.474 217.064C165.647 216.475 165.784 215.842 165.941 215.189C166.227 213.878 166.46 212.463 166.625 211.035C166.774 209.608 166.854 208.168 166.862 206.817C166.85 206.139 166.858 205.486 166.818 204.865C166.79 204.244 166.754 203.655 166.697 203.115C166.609 202.034 166.476 201.115 166.376 200.498C166.275 199.877 166.215 199.518 166.215 199.518C166.174 199.26 165.921 199.078 165.647 199.111C165.378 199.143 165.193 199.373 165.233 199.631C165.237 199.639 165.241 199.647 165.241 199.655Z" fill="#4AA5A2"/>
<path d="M166.174 203.401C166.174 203.401 166.701 203.696 167.393 204.216C168.097 204.736 168.963 205.531 169.715 206.422C170.463 207.313 171.091 208.293 171.457 209.071C171.835 209.846 171.992 210.398 171.992 210.398C171.992 210.398 171.868 209.842 171.534 209.043C171.212 208.241 170.636 207.22 169.928 206.277C169.22 205.333 168.379 204.474 167.679 203.897C166.975 203.309 166.468 202.994 166.468 202.994L166.448 202.982C166.323 202.905 166.158 202.934 166.082 203.051C166.005 203.168 166.041 203.321 166.166 203.397C166.166 203.393 166.17 203.397 166.174 203.401Z" fill="#4AA5A2"/>
<path d="M166.247 210.688C166.247 210.688 166.625 210.991 167.124 211.483C167.631 211.975 168.263 212.684 168.814 213.447C169.365 214.209 169.836 215.023 170.081 215.677C170.343 216.326 170.403 216.786 170.403 216.786C170.403 216.786 170.375 216.322 170.162 215.652C169.961 214.979 169.546 214.124 169.047 213.314C168.544 212.503 167.953 211.737 167.47 211.192C166.983 210.64 166.629 210.313 166.629 210.313L166.617 210.301C166.504 210.196 166.323 210.196 166.219 210.301C166.114 210.406 166.118 210.571 166.231 210.676C166.235 210.68 166.243 210.684 166.247 210.688Z" fill="#4AA5A2"/>
<path d="M165.297 216.907C165.297 216.907 165.518 217.169 165.796 217.584C166.078 217.999 166.412 218.58 166.685 219.189C166.955 219.798 167.16 220.431 167.253 220.919C167.349 221.403 167.353 221.734 167.353 221.734C167.353 221.734 167.373 221.407 167.305 220.911C167.245 220.419 167.08 219.766 166.846 219.137C166.609 218.503 166.311 217.895 166.05 217.451C165.788 217.003 165.583 216.729 165.583 216.729L165.575 216.721C165.518 216.644 165.41 216.624 165.329 216.677C165.253 216.725 165.233 216.83 165.289 216.907C165.293 216.898 165.293 216.902 165.297 216.907Z" fill="#4AA5A2"/>
<path d="M166.17 203.111C166.17 203.111 165.607 203.305 164.806 203.728C164.01 204.143 163.032 204.813 162.163 205.591C161.298 206.373 160.549 207.257 160.079 207.974C159.6 208.688 159.375 209.208 159.375 209.208C159.375 209.208 159.636 208.7 160.151 208.019C160.658 207.333 161.451 206.498 162.348 205.781C163.245 205.063 164.239 204.462 165.028 204.107C165.804 203.744 166.38 203.583 166.38 203.583C166.52 203.542 166.593 203.401 166.545 203.268C166.496 203.135 166.347 203.059 166.207 203.099C166.203 203.099 166.199 203.103 166.194 203.103L166.17 203.111Z" fill="#4AA5A2"/>
<path d="M166.287 210.273C166.287 210.273 165.881 210.507 165.297 210.934C164.722 211.354 164.002 211.963 163.358 212.64C162.714 213.317 162.151 214.06 161.825 214.668C161.491 215.273 161.378 215.721 161.378 215.721C161.378 215.721 161.527 215.285 161.901 214.713C162.267 214.136 162.879 213.447 163.563 212.83C164.247 212.213 164.995 211.668 165.587 211.301C166.166 210.934 166.593 210.729 166.593 210.729C166.73 210.664 166.778 210.503 166.701 210.37C166.625 210.241 166.456 210.188 166.319 210.253C166.315 210.257 166.307 210.257 166.303 210.261L166.287 210.273Z" fill="#4AA5A2"/>
<path d="M165.325 216.685C165.325 216.685 165.056 216.882 164.681 217.233C164.307 217.576 163.857 218.072 163.458 218.6C163.06 219.133 162.726 219.705 162.533 220.161C162.336 220.613 162.263 220.931 162.263 220.931C162.263 220.931 162.356 220.617 162.585 220.181C162.806 219.746 163.177 219.201 163.599 218.701C164.026 218.205 164.504 217.745 164.887 217.439C165.265 217.128 165.546 216.947 165.546 216.947C165.623 216.894 165.643 216.794 165.587 216.717C165.53 216.64 165.422 216.62 165.341 216.673C165.337 216.673 165.337 216.677 165.333 216.677L165.325 216.685Z" fill="#4AA5A2"/>
<path d="M274.824 227.734C273.399 224.827 269.911 221.657 268.084 218.943C266.262 216.225 264.572 213.37 263.839 210.265C263.107 207.16 263.437 203.744 265.396 201.195C267.356 198.647 271.15 197.235 274.373 198.369C277.089 199.324 278.884 201.784 279.982 204.272C283.503 212.213 281.37 221.899 274.824 227.734Z" fill="#63D1CA"/>
<path d="M268.45 198.8C268.45 198.8 268.639 199.115 268.969 199.659C269.299 200.211 269.742 200.978 270.233 201.946C270.486 202.425 270.736 202.95 270.993 203.514C271.259 204.071 271.5 204.676 271.762 205.297C272.257 206.547 272.719 207.898 273.118 209.269C273.496 210.644 273.814 212.031 274.043 213.346C274.14 214.003 274.256 214.64 274.317 215.245C274.389 215.85 274.45 216.423 274.482 216.955C274.566 218.015 274.586 218.903 274.59 219.524C274.59 220.145 274.59 220.5 274.59 220.5C274.59 220.5 274.606 220.145 274.635 219.528C274.659 218.907 274.679 218.02 274.643 216.955C274.635 216.423 274.594 215.846 274.55 215.233C274.514 214.62 274.429 213.979 274.361 213.313C274.188 211.987 273.935 210.575 273.609 209.172C273.267 207.773 272.86 206.385 272.41 205.103C272.172 204.466 271.955 203.845 271.709 203.268C271.472 202.688 271.243 202.143 271.005 201.647C270.555 200.651 270.12 199.82 269.818 199.264C269.513 198.703 269.336 198.385 269.336 198.385C269.211 198.155 268.909 198.058 268.664 198.171C268.418 198.284 268.322 198.558 268.446 198.788C268.446 198.788 268.45 198.796 268.45 198.8Z" fill="#4AA5A2"/>
<path d="M270.603 202.066C270.603 202.066 271.202 202.183 272.031 202.466C272.876 202.744 273.963 203.232 274.973 203.849C275.983 204.466 276.904 205.204 277.515 205.833C278.135 206.454 278.469 206.93 278.469 206.93C278.469 206.93 278.163 206.438 277.58 205.785C277.004 205.123 276.111 204.329 275.125 203.651C274.136 202.974 273.049 202.413 272.192 202.083C271.327 201.74 270.74 201.595 270.74 201.595L270.716 201.591C270.571 201.554 270.426 201.635 270.39 201.768C270.353 201.901 270.442 202.038 270.587 202.075C270.591 202.062 270.599 202.066 270.603 202.066Z" fill="#4AA5A2"/>
<path d="M273.126 208.95C273.126 208.95 273.585 209.124 274.224 209.434C274.872 209.749 275.709 210.228 276.49 210.781C277.266 211.337 277.99 211.967 278.445 212.507C278.912 213.039 279.125 213.459 279.125 213.459C279.125 213.459 278.944 213.031 278.517 212.459C278.099 211.882 277.419 211.196 276.671 210.579C275.918 209.966 275.105 209.418 274.462 209.051C273.814 208.676 273.367 208.474 273.367 208.474L273.351 208.466C273.21 208.402 273.037 208.454 272.973 208.587C272.909 208.716 272.969 208.874 273.114 208.938C273.114 208.946 273.122 208.95 273.126 208.95Z" fill="#4AA5A2"/>
<path d="M274.325 215.128C274.325 215.128 274.622 215.31 275.025 215.616C275.431 215.923 275.942 216.374 276.409 216.866C276.872 217.362 277.278 217.899 277.527 218.33C277.785 218.761 277.898 219.072 277.898 219.072C277.898 219.072 277.805 218.753 277.576 218.31C277.354 217.862 276.976 217.294 276.542 216.765C276.107 216.237 275.616 215.749 275.218 215.41C274.82 215.064 274.534 214.866 274.534 214.866L274.526 214.858C274.445 214.801 274.337 214.818 274.28 214.89C274.224 214.963 274.24 215.064 274.321 215.12C274.321 215.124 274.321 215.124 274.325 215.128Z" fill="#4AA5A2"/>
<path d="M270.499 201.796C270.499 201.796 270.032 202.147 269.416 202.796C268.801 203.43 268.101 204.361 267.541 205.365C266.986 206.369 266.572 207.434 266.37 208.257C266.161 209.079 266.117 209.64 266.117 209.64C266.117 209.64 266.193 209.079 266.451 208.277C266.7 207.47 267.171 206.442 267.775 205.49C268.382 204.538 269.123 203.667 269.75 203.087C270.362 202.51 270.853 202.179 270.853 202.179C270.969 202.099 270.994 201.946 270.905 201.833C270.817 201.72 270.648 201.695 270.527 201.776C270.523 201.78 270.519 201.78 270.515 201.784L270.499 201.796Z" fill="#4AA5A2"/>
<path d="M273.025 208.547C273.025 208.547 272.719 208.894 272.313 209.474C271.907 210.047 271.432 210.846 271.05 211.68C270.671 212.515 270.386 213.39 270.285 214.068C270.173 214.741 270.217 215.201 270.217 215.201C270.217 215.201 270.209 214.741 270.374 214.088C270.527 213.43 270.873 212.592 271.311 211.797C271.75 211.007 272.277 210.261 272.711 209.737C273.138 209.216 273.472 208.89 273.472 208.89C273.581 208.785 273.572 208.62 273.456 208.519C273.339 208.418 273.162 208.422 273.053 208.523C273.049 208.527 273.045 208.531 273.041 208.535L273.025 208.547Z" fill="#4AA5A2"/>
<path d="M274.28 214.91C274.28 214.91 274.091 215.181 273.858 215.624C273.621 216.064 273.359 216.669 273.158 217.294C272.961 217.919 272.836 218.564 272.808 219.052C272.772 219.54 272.812 219.866 272.812 219.866C272.812 219.866 272.796 219.54 272.864 219.06C272.925 218.58 273.094 217.951 273.327 217.35C273.564 216.749 273.862 216.173 274.12 215.761C274.373 215.354 274.578 215.092 274.578 215.092C274.635 215.019 274.618 214.918 274.538 214.862C274.458 214.81 274.349 214.822 274.293 214.894C274.289 214.898 274.289 214.898 274.289 214.902L274.28 214.91Z" fill="#4AA5A2"/>
<path d="M148.128 45.6051C148.128 45.6051 151.585 21.9539 133.008 14.3282C114.435 6.70656 102.127 13.7717 96.9805 20.6352C98.099 19.1431 103.692 19.4415 105.309 19.6069C109.373 20.0182 113.385 21.3087 116.422 23.9903C123.045 29.8296 121.939 38.4956 117.485 44.6776L148.128 45.6051Z" fill="#FBF5EB"/>
<path d="M100.558 19.9255C101.185 17.2115 99.2218 14.4371 96.1679 13.7274C93.118 13.0176 90.1325 14.6428 89.5048 17.3608C88.8771 20.0747 90.8406 22.8491 93.8945 23.5589C96.9444 24.2686 99.9299 22.6435 100.558 19.9255Z" fill="#FA6E5A"/>
<path d="M147.642 33.3822C148.028 35.3623 148.233 37.2495 148.322 38.919C139.502 35.7373 129.576 35.2493 120.724 37.5318C121.114 35.7534 121.207 33.9428 120.949 32.1644C129.592 30.3296 138.991 30.757 147.642 33.3822Z" fill="#FA6E5A"/>
<path d="M142.576 21.583C143.976 23.4097 145.051 25.3776 145.867 27.3738C137.18 25.2446 127.954 25.6357 119.802 28.4021C119.05 26.8415 117.968 25.3615 116.471 24.0308C124.583 21.0587 133.724 20.2159 142.576 21.583Z" fill="#FA6E5A"/>
<path d="M105.849 19.6714C110.202 15.6872 115.698 12.8119 121.706 11.2755C125.166 11.6909 128.936 12.6547 133.008 14.3282C133.644 14.5903 134.247 14.8726 134.835 15.171C126.739 14.5782 118.491 16.9091 112.331 21.3974C110.299 20.49 108.09 19.9416 105.849 19.6714Z" fill="#FA6E5A"/>
<path d="M121.798 166.624L119.167 164.216C119.131 162.994 119.058 161.777 118.958 160.567C118.925 160.2 118.604 159.934 118.241 159.958C117.875 159.99 117.606 160.313 117.634 160.676C117.73 161.841 117.799 163.015 117.835 164.188C117.831 164.192 117.823 164.196 117.819 164.204L115.312 167.168C115.075 167.451 115.111 167.87 115.389 168.108C115.513 168.213 115.666 168.265 115.819 168.265C116.008 168.265 116.193 168.184 116.326 168.031L117.867 166.208C117.867 166.596 117.871 166.987 117.863 167.374C117.863 167.39 117.859 167.41 117.859 167.426V167.632C117.855 167.999 118.149 168.297 118.515 168.305C118.519 168.305 118.523 168.305 118.523 168.305C118.885 168.305 119.179 168.015 119.187 167.652C119.195 167.12 119.199 166.588 119.195 166.055L120.897 167.612C121.026 167.729 121.187 167.785 121.344 167.785C121.525 167.785 121.702 167.713 121.834 167.567C122.088 167.293 122.068 166.87 121.798 166.624Z" fill="#6C97A3"/>
<path d="M101.902 164.241C101.877 162.386 101.813 160.47 101.696 159.083C101.664 158.716 101.342 158.45 100.98 158.474C100.614 158.506 100.344 158.829 100.373 159.192C100.481 160.506 100.546 162.361 100.57 164.156C100.554 164.172 100.542 164.184 100.525 164.196L98.0188 167.16C97.7814 167.442 97.8176 167.862 98.0952 168.1C98.22 168.205 98.3729 168.257 98.5258 168.257C98.7149 168.257 98.9 168.176 99.0327 168.023L100.582 166.192C100.582 166.604 100.578 166.999 100.574 167.366C100.574 167.382 100.57 167.402 100.57 167.418V167.624C100.566 167.991 100.859 168.289 101.226 168.297C101.23 168.297 101.234 168.297 101.234 168.297C101.596 168.297 101.889 168.007 101.898 167.644C101.906 167.152 101.91 166.616 101.914 166.051L103.612 167.604C103.74 167.721 103.901 167.777 104.058 167.777C104.239 167.777 104.416 167.705 104.549 167.559C104.795 167.289 104.778 166.866 104.505 166.62L101.902 164.241Z" fill="#6C97A3"/>
<path d="M174.282 81.3462C174.024 70.4703 171.993 61.6227 168.066 54.2874C164.4 47.44 158.815 42.0646 152.748 39.5482C143.393 35.6688 133.841 34.3824 125.126 35.8261C115.332 37.4512 106.714 42.6211 101.483 50.0088C95.001 59.1669 93.9428 70.8171 92.9248 82.0842L92.7719 83.7456C91.7379 94.9805 89.9393 107.675 81.5783 116.156C79.3211 118.446 74.6819 122.128 68.9885 121.063C67.8297 120.846 66.7634 120.471 65.8139 119.942C65.4678 119.749 65.1017 119.523 64.7637 119.289C65.7414 116.793 66.3128 114.172 66.4536 111.49C66.522 110.159 66.4938 108.453 65.6529 107.074C65.2505 106.417 64.5183 105.764 63.6693 105.909C62.8847 106.042 62.3254 106.78 62.0518 108.046C61.5649 110.288 61.573 112.655 62.0437 114.926L59.9515 109.744C59.7141 109.155 59.4445 108.486 58.9174 108.014C58.3984 107.55 57.5011 107.308 56.8694 107.78C56.4067 108.127 56.1975 108.744 56.2296 109.667C56.3021 111.93 57.135 114.111 58.4748 115.918C57.2315 114.978 55.948 114.087 54.6323 113.26C53.7551 112.708 52.6165 112.139 51.6106 112.647C50.9789 112.97 50.5604 113.7 50.5483 114.506C50.5363 115.136 50.7535 115.809 51.1921 116.515C52.3268 118.337 54.4391 119.648 56.9861 120.112C57.831 120.265 58.68 120.325 59.5169 120.325C60.6113 120.325 61.6856 120.221 62.7036 120.088C62.1081 128.52 68.3568 137.662 73.9737 144.07C74.7301 144.932 75.5268 145.775 76.3436 146.574C83.6907 153.772 93.0456 158.498 103.394 160.24C106.331 160.736 109.285 160.978 112.234 160.978C119.509 160.978 126.739 159.482 133.515 156.542C151.883 148.566 166.573 131.165 170.938 112.204C173.389 101.554 174.515 91.1697 174.282 81.3462Z" fill="#A2E0C1"/>
<path d="M114.62 105.546C111.333 104.05 107.812 104.429 105.438 105.014C101.628 105.949 97.8295 108.05 94.1439 111.26C90.8768 114.111 88.0602 117.491 85.3363 120.757C84.7166 121.499 84.0125 122.342 83.6987 123.358C83.3969 124.318 83.4935 125.62 84.3827 126.362C85.2075 127.052 86.3583 126.999 87.2716 126.883C89.9513 126.528 92.5184 125.54 94.7434 124.035C92.6552 126.451 90.5026 129.35 88.4988 132.464C88.1085 133.069 87.3038 134.573 88.2614 135.44C89.0138 136.121 90.3537 135.916 91.2791 135.436C95.1981 133.403 98.6061 131.27 102.211 129.012C102.473 128.85 102.734 128.685 102.996 128.52C102.883 128.633 102.775 128.746 102.662 128.858C100.147 131.407 97.5479 134.04 95.7936 137.113C95.3027 137.972 94.8159 138.892 94.6871 139.912C94.5422 141.069 94.9607 142.182 95.7453 142.747C96.2563 143.114 96.8518 143.243 97.4513 143.243C98.0307 143.243 98.6141 143.126 99.1291 142.993C103.66 141.839 108.214 139.113 112.677 134.891C117.698 130.137 120.655 125.225 121.464 120.301C122.478 114.127 119.537 107.784 114.62 105.546Z" fill="#87C7A7"/>
<path d="M132.078 63.3849C131.603 63.5018 131.31 63.9817 131.426 64.4576C131.752 65.7964 131.229 67.3288 130.159 68.1918C129.089 69.0547 127.479 69.2281 126.248 68.6192C125.017 68.0103 124.176 66.6231 124.208 65.248C124.22 64.756 123.83 64.3527 123.343 64.3406C122.86 64.3326 122.45 64.7197 122.438 65.2076C122.393 67.2844 123.609 69.2927 125.467 70.2121C126.212 70.5791 127.029 70.7605 127.849 70.7605C129.077 70.7605 130.304 70.3573 131.274 69.579C132.887 68.2805 133.643 66.0545 133.153 64.0382C133.036 63.5623 132.553 63.2679 132.078 63.3849Z" fill="#3F4553"/>
<path d="M162.118 64.0382C162.002 63.5623 161.523 63.2679 161.048 63.3849C160.573 63.5018 160.28 63.9817 160.396 64.4576C160.722 65.7964 160.199 67.3288 159.129 68.1918C158.059 69.0547 156.449 69.2281 155.218 68.6192C153.987 68.0103 153.146 66.6231 153.178 65.248C153.19 64.756 152.8 64.3527 152.313 64.3406C151.826 64.3326 151.42 64.7197 151.408 65.2076C151.363 67.2804 152.579 69.2927 154.437 70.2121C155.182 70.5791 155.999 70.7605 156.819 70.7605C158.047 70.7605 159.274 70.3573 160.243 69.579C161.853 68.2805 162.609 66.0545 162.118 64.0382Z" fill="#3F4553"/>
<path d="M160.453 88.4113C160.215 87.8548 159.761 87.3749 159.439 87.0644C158.948 86.5886 158.453 86.1168 157.958 85.645C156.345 84.1085 154.538 82.556 152.277 80.7574C152.076 80.5961 151.854 80.4066 151.625 80.205C150.683 79.3823 149.509 78.3621 148.31 78.3621C147.875 78.3621 147.505 78.5879 147.111 78.8298L146.982 78.9065C146.29 79.3259 145.666 79.842 145.131 80.4469C144.258 81.4228 143.204 82.9875 143.087 84.1771C143.083 84.2295 143.079 84.2819 143.079 84.3344C143.079 84.3747 143.079 84.411 143.083 84.4513C143.159 85.5845 144.113 86.3386 144.958 87.0039C145.127 87.137 145.288 87.2661 145.437 87.3911C146.443 88.246 147.638 89.242 148.901 90.1292C151.146 91.706 153.713 92.94 156.538 93.7949C156.671 93.8352 156.815 93.8594 156.964 93.8594C157.242 93.8594 157.516 93.7707 157.66 93.5166C157.785 93.2989 157.829 92.9279 157.326 92.4036L152.148 86.9878C153.351 87.4274 154.546 87.8427 155.773 88.2016C156.61 88.4476 157.387 88.6412 158.139 88.7944C158.191 88.8065 158.284 88.8307 158.401 88.867C159.173 89.0888 159.962 89.2864 160.316 89.0686C160.421 89.0041 160.489 88.9114 160.513 88.7944C160.541 88.6452 160.497 88.5162 160.453 88.4113Z" fill="#3F4553"/>
<path d="M130.767 76.5796C128.759 75.4585 124.953 76.1279 123.355 77.4466C122.981 77.753 122.362 78.3983 122.394 79.2491C122.414 79.846 122.78 80.4468 123.392 80.9065C124.289 81.5719 125.512 81.9187 126.759 81.9187C127.661 81.9187 128.57 81.7373 129.375 81.3703C130.103 81.0356 130.686 80.5799 131.101 80.0073C131.592 79.3298 131.801 78.4709 131.648 77.7692C131.539 77.249 131.234 76.8376 130.767 76.5796Z" fill="#86D1AB"/>
<path d="M165.543 76.9465C165.43 76.4304 165.124 76.019 164.658 75.7569C162.65 74.6359 158.844 75.3053 157.246 76.6239C156.872 76.9304 156.252 77.5756 156.285 78.4265C156.305 79.0233 156.671 79.6242 157.282 80.0839C158.18 80.7493 159.403 81.0961 160.65 81.0961C161.552 81.0961 162.461 80.9146 163.266 80.5477C163.994 80.213 164.577 79.7573 164.992 79.1846C165.487 78.5072 165.696 77.6482 165.543 76.9465Z" fill="#86D1AB"/>
<path d="M136.698 131.318C136.187 131.75 135.543 132.286 134.903 132.508C134.332 132.706 134.223 132.512 134.05 132.012C133.909 131.617 133.873 131.218 133.873 130.798C133.877 129.939 132.545 129.939 132.545 130.798C132.541 131.883 132.863 133.685 134.135 133.968C135.35 134.238 136.786 132.984 137.639 132.262C138.295 131.71 137.349 130.77 136.698 131.318Z" fill="#A6D4E0"/>
<path d="M145.183 131.839C144.672 132.169 144.149 132.476 143.602 132.742C143.208 132.935 142.628 133.27 142.121 133.359C141.892 132.895 141.86 131.988 141.787 131.625C141.622 130.786 140.343 131.141 140.504 131.98C140.693 132.944 140.697 134.847 142.117 134.722C143.352 134.613 144.845 133.645 145.855 132.992C146.571 132.524 145.903 131.371 145.183 131.839Z" fill="#A6D4E0"/>
<path d="M153.307 133.169C153.041 133.343 152.78 133.516 152.514 133.689C152.273 133.847 151.939 134.161 151.661 134.226C151.585 134.242 151.561 134.262 151.557 134.274C151.549 134.266 151.537 134.258 151.512 134.242C151.424 134.186 151.356 133.935 151.319 133.847C151.187 133.508 151.122 133.161 151.102 132.798C151.054 131.947 149.726 131.939 149.774 132.798C149.827 133.71 150.084 135.133 151.042 135.528C152.056 135.944 153.202 134.835 153.983 134.323C154.691 133.851 154.027 132.697 153.307 133.169Z" fill="#A6D4E0"/>
<path d="M136.987 139.545C136.384 139.952 135.78 140.359 135.177 140.763C134.879 140.96 134.642 141.243 134.255 140.936C133.974 140.714 133.949 140.101 133.941 139.783C133.929 138.928 132.602 138.924 132.614 139.783C132.626 140.771 133.08 142.315 134.247 142.485C134.75 142.557 135.177 142.34 135.591 142.085C136.295 141.65 136.971 141.158 137.663 140.694C138.367 140.222 137.703 139.069 136.987 139.545Z" fill="#A6D4E0"/>
<path d="M145.984 140.847C145.296 141.4 144.523 142.025 143.638 142.21C142.423 142.465 142.242 141.69 142.286 140.686C142.322 139.827 140.994 139.831 140.958 140.686C140.902 142.013 141.252 143.352 142.749 143.565C144.358 143.791 145.742 142.739 146.925 141.795C147.593 141.255 146.648 140.315 145.984 140.847Z" fill="#A6D4E0"/>
<path d="M137.985 147.59C137.41 148.042 136.573 148.376 135.832 148.251C135.108 148.13 135.225 147.316 135.313 146.747C135.442 145.908 134.163 145.545 134.03 146.392C133.857 147.513 133.845 148.913 135.076 149.425C136.359 149.961 137.909 149.328 138.922 148.529C139.598 148.005 138.653 147.066 137.985 147.59Z" fill="#A6D4E0"/>
<path d="M137.526 112.607C136.935 113.414 136.138 114.446 135.028 114.426C133.76 114.406 133.652 113.03 133.603 112.055C133.563 111.2 132.231 111.196 132.275 112.055C132.352 113.607 132.734 115.381 134.513 115.712C136.355 116.051 137.687 114.619 138.673 113.276C139.18 112.591 138.025 111.926 137.526 112.607Z" fill="#A6D4E0"/>
<path d="M147.018 112.797C146.362 113.587 145.602 114.256 144.676 114.712C144.21 114.942 144.093 115.007 143.574 114.813C143.043 114.615 143.051 114.535 142.902 114.039C142.753 113.543 142.669 113.035 142.596 112.522C142.476 111.676 141.196 112.039 141.313 112.877C141.51 114.273 141.884 116.398 143.683 116.382C145.312 116.37 146.978 114.918 147.956 113.736C148.499 113.083 147.565 112.135 147.018 112.797Z" fill="#A6D4E0"/>
<path d="M155.665 114.361C155.085 114.877 154.128 115.732 153.323 115.865C152.325 116.031 152.08 114.156 152.011 113.478C151.923 112.635 150.591 112.623 150.684 113.478C150.812 114.716 151.187 116.708 152.567 117.176C153.939 117.64 155.669 116.136 156.606 115.305C157.242 114.732 156.301 113.793 155.665 114.361Z" fill="#A6D4E0"/>
<path d="M164.287 115.087C163.865 115.39 163.442 115.696 163.02 115.998C162.73 116.208 162.167 116.785 161.805 116.813C160.694 116.91 160.525 114.805 160.61 114.131C160.718 113.285 159.387 113.293 159.282 114.131C159.109 115.498 159.616 117.265 160.92 117.958C162.348 118.716 163.909 116.995 164.959 116.236C165.647 115.744 164.983 114.587 164.287 115.087Z" fill="#A6D4E0"/>
<path d="M137.16 122.459C136.637 122.967 135.168 124.16 134.529 123.334C134.05 122.717 133.973 121.6 133.792 120.866C133.591 120.031 132.308 120.386 132.509 121.221C132.795 122.398 132.951 124.181 134.199 124.781C135.531 125.419 137.172 124.298 138.098 123.406C138.717 122.805 137.776 121.866 137.16 122.459Z" fill="#A6D4E0"/>
<path d="M146.201 123.302C145.674 123.798 144.7 125.092 143.924 125.027C142.854 124.935 142.644 123.503 142.483 122.668C142.322 121.826 141.043 122.184 141.2 123.023C141.461 124.394 141.964 125.947 143.485 126.326C145.006 126.709 146.161 125.161 147.135 124.245C147.766 123.656 146.825 122.717 146.201 123.302Z" fill="#A6D4E0"/>
<path d="M154.647 124.217C154.321 124.54 153.991 124.854 153.649 125.153C153.452 125.326 152.824 126.032 152.571 126.036C151.883 126.048 151.657 124.616 151.677 124.136C151.71 123.277 150.382 123.281 150.35 124.136C150.305 125.302 150.873 126.903 152.084 127.33C152.639 127.524 153.094 127.31 153.536 126.971C154.261 126.415 154.941 125.806 155.592 125.161C156.196 124.556 155.254 123.616 154.647 124.217Z" fill="#A6D4E0"/>
<path d="M162.843 124.209C162.444 124.717 162.018 125.265 161.422 125.548C160.819 125.834 159.64 125.729 159.938 124.782C160.195 123.963 158.916 123.612 158.654 124.427C158.268 125.653 159.153 126.862 160.392 127.028C161.841 127.221 162.955 126.201 163.784 125.148C164.307 124.487 163.374 123.535 162.843 124.209Z" fill="#A6D4E0"/>
<path d="M100.216 137.734C100.051 137.456 99.592 137.275 99.3063 137.496C98.6987 137.968 98.0872 138.436 97.4796 138.908C97.1939 139.126 97.045 139.48 97.2422 139.819C97.4072 140.097 97.8659 140.279 98.1515 140.057C98.7591 139.585 99.3707 139.117 99.9782 138.646C100.26 138.428 100.413 138.073 100.216 137.734Z" fill="#598E9C"/>
<path d="M111.566 132.677C111.401 132.391 110.947 132.226 110.657 132.439C109.921 132.984 109.18 133.524 108.444 134.069C108.154 134.282 108.013 134.645 108.207 134.98C108.372 135.266 108.826 135.432 109.116 135.218C109.852 134.674 110.593 134.133 111.329 133.589C111.619 133.375 111.759 133.012 111.566 132.677Z" fill="#598E9C"/>
<path d="M104.485 137C104.014 137.46 103.463 137.779 102.835 137.96C102.014 138.198 102.364 139.48 103.189 139.247C104.038 139.001 104.794 138.561 105.426 137.944C106.038 137.343 105.096 136.4 104.485 137Z" fill="#598E9C"/>
<path d="M90.1043 119.027C89.4565 119.551 88.7161 119.963 87.9315 120.249C87.1308 120.535 87.4769 121.826 88.2856 121.535C89.2995 121.168 90.2089 120.652 91.0458 119.971C91.7097 119.43 90.7641 118.491 90.1043 119.027Z" fill="#598E9C"/>
<path d="M96.1758 114.216C95.3429 114.672 94.5141 115.123 93.6812 115.579C92.9288 115.99 93.6007 117.14 94.3531 116.728C95.186 116.273 96.0149 115.821 96.8477 115.365C97.5961 114.954 96.9282 113.805 96.1758 114.216Z" fill="#598E9C"/>
<path d="M99.3624 118.591C99.2739 118.273 98.8796 117.994 98.5456 118.128C97.9662 118.353 97.3868 118.579 96.8034 118.801C96.4694 118.93 96.2361 119.249 96.3407 119.62C96.4292 119.938 96.8235 120.216 97.1575 120.083C97.7369 119.858 98.3163 119.632 98.8997 119.41C99.2337 119.281 99.463 118.962 99.3624 118.591Z" fill="#598E9C"/>
<path d="M103.149 108.945C102.384 109.405 101.588 109.796 100.751 110.107C99.954 110.401 100.3 111.688 101.105 111.393C102.05 111.042 102.956 110.619 103.821 110.099C104.553 109.655 103.889 108.502 103.149 108.945Z" fill="#598E9C"/>
<path d="M106.943 112.268C105.869 112.837 104.754 113.272 103.587 113.599C102.763 113.829 103.113 115.111 103.941 114.885C105.217 114.531 106.444 114.043 107.615 113.422C108.371 113.018 107.704 111.869 106.943 112.268Z" fill="#598E9C"/>
<path d="M110.661 106.74C109.784 107.026 108.947 107.409 108.166 107.897C107.442 108.349 108.106 109.502 108.838 109.046C109.526 108.619 110.246 108.276 111.019 108.022C111.824 107.756 111.478 106.469 110.661 106.74Z" fill="#598E9C"/>
<path d="M115.682 109.978C114.998 110.147 114.314 110.316 113.63 110.482C112.801 110.687 113.151 111.97 113.984 111.768C114.668 111.599 115.352 111.43 116.036 111.264C116.865 111.059 116.511 109.772 115.682 109.978Z" fill="#598E9C"/>
<path d="M112.448 116.696C111.615 116.906 110.782 117.12 109.949 117.329C109.12 117.539 109.47 118.825 110.303 118.616C111.136 118.406 111.969 118.192 112.802 117.983C113.626 117.769 113.276 116.486 112.448 116.696Z" fill="#598E9C"/>
<path d="M105.326 119.829C104.521 120.334 103.7 120.805 102.859 121.245C102.099 121.64 102.771 122.789 103.531 122.394C104.372 121.955 105.193 121.483 105.998 120.979C106.718 120.527 106.054 119.374 105.326 119.829Z" fill="#598E9C"/>
<path d="M98.2844 125.161C97.7493 125.624 97.1377 126.007 96.4819 126.278C96.1479 126.415 95.9145 126.721 96.0191 127.096C96.1036 127.411 96.502 127.697 96.8359 127.56C97.7171 127.201 98.5017 126.725 99.2219 126.104C99.8697 125.544 98.9282 124.604 98.2844 125.161Z" fill="#598E9C"/>
<path d="M93.2428 130.532C92.6473 130.923 92.0558 131.314 91.4603 131.705C90.7482 132.173 91.4121 133.327 92.1323 132.855C92.7278 132.464 93.3193 132.072 93.9147 131.681C94.6269 131.213 93.959 130.06 93.2428 130.532Z" fill="#598E9C"/>
<path d="M107.72 125.717C107.18 125.87 106.637 126.019 106.098 126.173C105.277 126.403 105.623 127.689 106.452 127.459C106.991 127.306 107.534 127.157 108.074 127.003C108.894 126.77 108.544 125.483 107.72 125.717Z" fill="#598E9C"/>
<path d="M113.586 121.148C112.866 121.628 112.109 121.975 111.272 122.201C110.448 122.427 110.798 123.709 111.627 123.487C112.56 123.233 113.449 122.838 114.258 122.302C114.966 121.83 114.302 120.672 113.586 121.148Z" fill="#598E9C"/>
<path d="M119.38 114.898C118.547 115.115 117.718 115.337 116.885 115.555C116.06 115.773 116.41 117.059 117.239 116.841L119.734 116.184C120.563 115.962 120.209 114.676 119.38 114.898Z" fill="#598E9C"/>
<path d="M117.742 123.253L115.421 124.939C114.737 125.439 115.397 126.592 116.093 126.088L118.414 124.402C119.098 123.906 118.438 122.749 117.742 123.253Z" fill="#598E9C"/>
<path d="M111.864 128.479C111.164 128.915 110.436 129.225 109.639 129.427C108.81 129.641 109.16 130.923 109.993 130.713C110.89 130.484 111.747 130.117 112.532 129.629C113.26 129.181 112.596 128.028 111.864 128.479Z" fill="#598E9C"/>
<path d="M104.187 131.149C103.422 131.613 102.63 132.024 101.805 132.359C101.471 132.496 101.242 132.802 101.342 133.177C101.427 133.496 101.829 133.778 102.159 133.641C103.092 133.262 103.994 132.823 104.859 132.298C105.591 131.859 104.923 130.705 104.187 131.149Z" fill="#598E9C"/>
<path d="M172.129 106.494C171.775 108.389 171.377 110.296 170.938 112.212C168.532 122.664 162.984 132.641 155.411 140.827C155.367 141.452 155.331 142.077 155.303 142.702C155.262 143.565 155.254 144.404 155.572 145.174C155.87 145.892 156.59 146.638 157.503 146.638C157.54 146.638 157.576 146.638 157.612 146.634C158.618 146.57 159.29 145.658 159.708 144.981C160.525 143.654 161.197 142.17 161.66 140.702C161.66 141.343 161.684 141.989 161.736 142.626C161.821 143.682 162.171 144.319 162.774 144.521C163.237 144.674 163.796 144.513 164.199 144.102C164.549 143.751 164.738 143.287 164.887 142.88C165.398 141.505 165.744 140.029 165.909 138.577C165.933 138.722 165.957 138.867 165.989 139.013C166.19 139.892 166.766 140.726 167.454 141.138C167.929 141.424 168.44 141.501 168.93 141.364C169.659 141.162 170.234 140.525 170.693 139.42C171.51 137.44 171.783 135.343 172.017 133.185C172.777 126.128 173.03 118.958 172.773 111.865C172.713 110.079 172.592 108.228 172.129 106.494Z" fill="#87C7A7"/>
<path d="M162.758 136.847V138.4C162.758 139.259 164.086 139.259 164.086 138.4V136.847C164.086 135.988 162.758 135.988 162.758 136.847Z" fill="#598E9C"/>
<path d="M159.656 137.791V139.121C159.656 139.98 160.984 139.98 160.984 139.121V137.791C160.988 136.932 159.656 136.932 159.656 137.791Z" fill="#598E9C"/>
<path d="M157.109 141.452V142.783C157.109 143.642 158.437 143.642 158.437 142.783V141.452C158.437 140.593 157.109 140.593 157.109 141.452Z" fill="#598E9C"/>
<path d="M170.954 113.7V115.809C170.954 116.668 172.282 116.668 172.282 115.809V113.7C172.286 112.841 170.954 112.841 170.954 113.7Z" fill="#598E9C"/>
<path d="M170.733 119.249V121.801C170.733 122.66 172.061 122.66 172.061 121.801V119.249C172.061 118.394 170.733 118.39 170.733 119.249Z" fill="#598E9C"/>
<path d="M170.302 125.358C170.254 126.06 170.206 126.762 170.162 127.467C170.105 128.322 171.433 128.318 171.489 127.467C171.538 126.766 171.586 126.064 171.63 125.358C171.687 124.499 170.359 124.503 170.302 125.358Z" fill="#598E9C"/>
<path d="M169.872 130.685C169.49 130.685 169.236 130.992 169.208 131.351C169.168 131.867 169.128 132.387 169.087 132.903C169.059 133.262 169.413 133.568 169.751 133.568C170.133 133.568 170.387 133.262 170.415 132.903C170.455 132.387 170.496 131.867 170.536 131.351C170.564 130.992 170.21 130.685 169.872 130.685Z" fill="#598E9C"/>
<path d="M168.267 123.052C167.945 122.963 167.51 123.16 167.45 123.515C167.317 124.273 167.261 125.032 167.301 125.798C167.345 126.649 168.677 126.657 168.629 125.798C168.592 125.153 168.617 124.507 168.729 123.87C168.794 123.515 168.637 123.152 168.267 123.052Z" fill="#598E9C"/>
<path d="M166.19 131.351V132.681C166.19 133.54 167.518 133.54 167.518 132.681V131.351C167.522 130.492 166.19 130.492 166.19 131.351Z" fill="#598E9C"/>
<path d="M167.743 136.791V138.456C167.743 139.315 169.071 139.315 169.071 138.456V136.791C169.071 135.932 167.743 135.932 167.743 136.791Z" fill="#598E9C"/>
<path d="M164.416 131.685C164.388 131.326 164.13 131.02 163.752 131.02C163.414 131.02 163.06 131.326 163.088 131.685C163.124 132.149 163.104 132.605 163.008 133.065C162.935 133.415 163.112 133.786 163.47 133.883C163.8 133.976 164.215 133.77 164.287 133.419C164.412 132.843 164.46 132.266 164.416 131.685Z" fill="#598E9C"/>
<path d="M176.221 105.586C176.559 107.389 176.933 109.2 177.356 111.022C179.641 120.955 184.912 130.431 192.106 138.21C192.147 138.803 192.183 139.4 192.211 139.989C192.247 140.811 192.255 141.606 191.958 142.336C191.676 143.017 190.988 143.723 190.123 143.723C190.087 143.723 190.054 143.723 190.018 143.719C189.061 143.658 188.425 142.791 188.026 142.146C187.25 140.884 186.614 139.477 186.172 138.081C186.172 138.69 186.147 139.303 186.099 139.908C186.019 140.912 185.685 141.517 185.113 141.711C184.675 141.856 184.144 141.703 183.761 141.315C183.432 140.981 183.25 140.541 183.106 140.154C182.619 138.847 182.293 137.444 182.132 136.065C182.112 136.206 182.084 136.343 182.055 136.48C181.866 137.315 181.319 138.109 180.663 138.501C180.209 138.771 179.726 138.847 179.259 138.714C178.567 138.521 178.02 137.92 177.585 136.867C176.809 134.988 176.547 132.996 176.33 130.948C175.61 124.245 175.368 117.43 175.61 110.696C175.666 108.994 175.779 107.236 176.221 105.586Z" fill="#D9A4D1"/>
<path d="M185.122 134.423V135.899C185.122 136.714 183.858 136.714 183.858 135.899V134.423C183.862 133.609 185.122 133.605 185.122 134.423Z" fill="#B98BB2"/>
<path d="M188.071 135.319V136.585C188.071 137.4 186.807 137.4 186.807 136.585V135.319C186.807 134.504 188.071 134.504 188.071 135.319Z" fill="#B98BB2"/>
<path d="M190.489 138.799V140.065C190.489 140.88 189.226 140.88 189.226 140.065V138.799C189.226 137.984 190.489 137.984 190.489 138.799Z" fill="#B98BB2"/>
<path d="M177.336 112.434V114.438C177.336 115.252 176.073 115.252 176.073 114.438V112.434C176.073 111.619 177.336 111.619 177.336 112.434Z" fill="#B98BB2"/>
<path d="M177.545 117.704V120.128C177.545 120.943 176.282 120.943 176.282 120.128V117.704C176.286 116.894 177.545 116.89 177.545 117.704Z" fill="#B98BB2"/>
<path d="M177.96 123.507C178.004 124.173 178.048 124.842 178.096 125.507C178.153 126.322 176.889 126.318 176.833 125.507C176.789 124.842 176.744 124.173 176.696 123.507C176.64 122.693 177.903 122.697 177.96 123.507Z" fill="#B98BB2"/>
<path d="M178.366 128.572C178.728 128.572 178.969 128.863 178.998 129.205C179.034 129.697 179.074 130.189 179.11 130.681C179.138 131.024 178.8 131.314 178.479 131.314C178.116 131.314 177.875 131.024 177.847 130.681C177.811 130.189 177.77 129.697 177.734 129.205C177.71 128.863 178.044 128.572 178.366 128.572Z" fill="#B98BB2"/>
<path d="M179.887 121.318C180.193 121.233 180.603 121.422 180.663 121.761C180.788 122.483 180.844 123.201 180.804 123.931C180.76 124.741 179.497 124.745 179.541 123.931C179.573 123.318 179.549 122.705 179.444 122.1C179.388 121.761 179.537 121.414 179.887 121.318Z" fill="#B98BB2"/>
<path d="M181.863 129.201V130.468C181.863 131.282 180.599 131.282 180.599 130.468V129.201C180.599 128.387 181.863 128.387 181.863 129.201Z" fill="#B98BB2"/>
<path d="M180.386 134.371V135.952C180.386 136.766 179.122 136.766 179.122 135.952V134.371C179.126 133.557 180.386 133.553 180.386 134.371Z" fill="#B98BB2"/>
<path d="M183.548 129.52C183.573 129.177 183.822 128.887 184.18 128.887C184.502 128.887 184.836 129.177 184.812 129.52C184.78 129.963 184.796 130.395 184.888 130.83C184.957 131.165 184.792 131.516 184.446 131.609C184.132 131.693 183.742 131.504 183.669 131.165C183.552 130.621 183.504 130.072 183.548 129.52Z" fill="#B98BB2"/>
<path d="M212.357 163.922C212.293 163.685 212.104 163.515 211.882 163.459L211.629 155.643C211.617 155.277 211.303 154.978 210.945 154.998C210.579 155.01 210.289 155.317 210.301 155.684L210.542 163.193L206.857 165.169C206.535 165.342 206.41 165.745 206.583 166.072C206.704 166.298 206.933 166.423 207.171 166.423C207.275 166.423 207.384 166.398 207.484 166.346L209.701 165.156L208.358 167.54C208.177 167.858 208.289 168.266 208.607 168.447C208.712 168.508 208.824 168.532 208.933 168.532C209.166 168.532 209.388 168.411 209.512 168.193L211.291 165.044L212.031 167.729C212.112 168.024 212.381 168.217 212.671 168.217C212.731 168.217 212.788 168.209 212.848 168.193C213.202 168.096 213.407 167.729 213.311 167.374L212.357 163.922Z" fill="#D9A4D1"/>
<path d="M230.146 167.374L229.192 163.918C229.128 163.68 228.939 163.511 228.717 163.454L228.464 155.639C228.452 155.272 228.134 154.974 227.78 154.994C227.414 155.006 227.124 155.313 227.136 155.68L227.377 163.188L223.692 165.164C223.37 165.338 223.245 165.741 223.418 166.068C223.539 166.293 223.768 166.418 224.006 166.418C224.11 166.418 224.219 166.394 224.319 166.342L226.536 165.152L225.193 167.535C225.011 167.854 225.124 168.261 225.442 168.443C225.547 168.503 225.659 168.527 225.768 168.527C226.001 168.527 226.223 168.406 226.347 168.189L228.126 165.039L228.866 167.725C228.947 168.019 229.216 168.213 229.506 168.213C229.566 168.213 229.623 168.205 229.683 168.189C230.033 168.096 230.242 167.729 230.146 167.374Z" fill="#D9A4D1"/>
<path d="M203.352 48.5895C203.352 48.5895 200.242 27.3013 216.96 20.4418C233.678 13.5823 244.755 19.9418 249.382 26.1157C248.376 24.7728 243.343 25.043 241.886 25.1882C238.229 25.5592 234.62 26.7206 231.884 29.1321C225.925 34.3866 226.918 42.1857 230.926 47.7507L203.352 48.5895Z" fill="#FBF5EB"/>
<path d="M246.167 25.4825C245.604 23.0388 247.37 20.5426 250.119 19.9054C252.863 19.2683 255.55 20.7321 256.114 23.1759C256.677 25.6196 254.911 28.1158 252.163 28.753C249.414 29.3861 246.731 27.9263 246.167 25.4825Z" fill="#FA6E5A"/>
<path d="M203.791 37.5926C203.441 39.3709 203.26 41.0727 203.179 42.5769C211.118 39.7137 220.05 39.2742 228.017 41.3308C227.667 39.7298 227.582 38.1007 227.816 36.4997C220.034 34.8423 211.572 35.2294 203.791 37.5926Z" fill="#FA6E5A"/>
<path d="M208.35 26.9747C207.09 28.62 206.12 30.3903 205.388 32.1848C213.206 30.2693 221.511 30.6201 228.846 33.1083C229.522 31.7049 230.499 30.3701 231.847 29.1724C224.545 26.5029 216.312 25.7407 208.35 26.9747Z" fill="#FA6E5A"/>
<path d="M241.403 25.2527C237.484 21.6677 232.535 19.0787 227.132 17.6956C224.017 18.0706 220.625 18.9376 216.96 20.4418C216.389 20.6757 215.841 20.9337 215.318 21.1999C222.605 20.6676 230.029 22.7645 235.573 26.8052C237.396 25.9866 239.387 25.4946 241.403 25.2527Z" fill="#FA6E5A"/>
<path d="M280.927 120.806C280.662 120.306 280.022 120.027 279.37 120.124C278.815 120.209 278.336 120.515 277.902 120.834C276.666 121.745 275.584 122.858 274.534 123.939L270.257 128.339C272.265 125.943 274.059 123.37 275.608 120.652C276.513 119.059 277.35 117.334 277.322 115.507C277.31 114.809 277.165 114.257 276.884 113.817C276.513 113.248 275.898 112.914 275.302 112.97C274.538 113.039 274.003 113.68 273.625 114.232C271.725 116.991 270.808 120.269 269.919 123.443C269.452 125.1 268.973 126.798 268.358 128.427C268.953 126.568 269.484 124.673 269.822 122.741C270.466 119.076 270.325 115.777 269.396 112.93C269.283 112.583 269.118 112.204 268.756 112.043C268.189 111.789 267.617 112.236 267.303 112.7C266.189 114.321 266.261 116.39 266.442 118.547L267.392 129.786C263.984 130.456 260.689 127.726 259.276 126.346C255.015 122.181 254.758 115.741 254.529 110.063L254.508 109.591C254.162 101.155 253.784 94.0774 253.044 86.9558C251.463 71.6843 248.119 54.9006 235.32 46.1781C230.572 42.9439 224.5 41.1857 217.765 41.097C208.599 40.9639 200.093 44.0004 193.165 49.8518C186.618 55.3765 181.778 63.0908 179.163 72.1642C176.386 81.8062 176.068 92.0208 176.105 99.8441C176.125 104.453 176.282 108.236 176.595 111.748C177.026 116.551 177.754 120.806 178.825 124.754C183.198 140.88 195.494 153.712 210.913 158.244C215.548 159.607 220.183 160.285 224.75 160.285C232.045 160.285 239.158 158.555 245.781 155.119C257.003 149.304 264.966 141.057 268.933 131.186C273.862 130.335 278.344 127.141 280.682 122.689C280.952 122.185 281.265 121.439 280.927 120.806Z" fill="#ECC6E8"/>
<path d="M253.132 121.608C251.455 117.297 249.423 113.966 246.924 111.414C243.874 108.304 240.12 106.433 236.346 106.155C232.109 105.845 227.953 107.7 225.748 110.881C222.899 114.995 223.652 120.281 224.356 123.064C225.917 129.254 229.787 134.928 234.978 138.626C235.976 139.335 237.183 140.102 238.579 140.388C239.038 140.481 239.492 140.513 239.931 140.489C240.921 140.432 241.818 140.073 242.466 139.46C244.156 137.859 242.208 133.883 240.937 131.774C241.214 131.996 243.073 133.403 243.371 133.601C244.228 134.166 245.009 134.46 245.757 134.504C246.735 134.565 247.636 134.166 248.111 133.464C248.936 132.25 248.312 130.653 247.68 129.395L245.504 125.737C245.958 126.233 247.326 127.709 247.91 128.052C249.415 128.935 251.72 129.072 253.028 127.588C254.162 126.302 254.199 124.346 253.132 121.608Z" fill="#D9A4D1"/>
<path d="M227.321 83.8586C227.236 82.9311 226.637 82.048 225.715 81.4955C225.003 81.0721 224.106 80.8342 222.979 80.7656C221.615 80.685 220.259 80.8503 218.956 81.2495C218.429 81.4108 217.757 81.6568 217.206 82.1246C216.634 82.6085 216.3 83.282 216.308 83.9231C216.32 84.8789 217.032 85.6128 217.692 85.9798C218.372 86.3548 219.101 86.6613 219.857 86.8871C220.859 87.1855 221.909 87.3347 222.939 87.3347C223.245 87.3347 223.551 87.3226 223.853 87.2944C225.655 87.1331 227.486 85.7136 227.321 83.8586Z" fill="#D9A4D1"/>
<path d="M192.211 77.5799C191.579 77.2049 190.787 76.9911 189.785 76.9347C188.578 76.8621 187.379 77.0073 186.224 77.3621C185.757 77.5073 185.158 77.7251 184.671 78.1364C184.16 78.5679 183.862 79.1688 183.87 79.7414C183.882 80.5963 184.514 81.2536 185.105 81.5803C185.709 81.915 186.353 82.1851 187.021 82.3827C187.906 82.6449 188.835 82.782 189.749 82.782C190.018 82.782 190.292 82.7699 190.557 82.7457C192.167 82.6005 193.792 81.3383 193.643 79.6849C193.567 78.8582 193.032 78.0719 192.211 77.5799Z" fill="#D9A4D1"/>
<path d="M202.037 67.2281C201.61 67.0991 201.163 67.337 201.031 67.7604C200.431 69.7122 198.769 71.3011 196.798 71.8132C196.029 72.0108 195.325 72.0149 194.762 71.8213C193.977 71.5511 193.289 70.8172 192.963 69.9058C192.666 69.071 192.633 68.0468 192.867 66.9459C192.959 66.5103 192.682 66.0829 192.247 65.9901C191.813 65.8974 191.386 66.1756 191.294 66.6111C190.996 68.0064 191.048 69.3332 191.446 70.4502C191.937 71.8374 192.983 72.9222 194.243 73.3496C194.693 73.5029 195.172 73.5795 195.683 73.5795C196.166 73.5795 196.673 73.5109 197.2 73.3738C199.703 72.7286 201.807 70.7083 202.568 68.2363C202.7 67.8129 202.459 67.3612 202.037 67.2281Z" fill="#3F4553"/>
<path d="M227.542 69.7646C227.51 69.3211 227.128 68.9864 226.681 69.0186C226.238 69.0509 225.905 69.438 225.937 69.8816C226.017 70.9825 225.418 72.1802 224.408 72.9343C223.478 73.6279 222.191 73.9949 220.791 73.9707C220.034 73.9586 219.487 73.8174 219.121 73.5472C218.662 73.2085 218.364 72.5552 218.324 71.7971C218.284 71.0107 218.489 70.176 218.686 69.3695C218.791 68.938 218.529 68.4984 218.099 68.3936C217.668 68.2887 217.23 68.5508 217.125 68.9823C216.908 69.8614 216.662 70.8535 216.719 71.8818C216.787 73.1359 217.314 74.2167 218.167 74.8457C218.811 75.3216 219.66 75.5595 220.762 75.5797C220.815 75.5797 220.871 75.5797 220.923 75.5797C222.621 75.5797 224.194 75.0998 225.369 74.2247C226.826 73.1399 227.659 71.4261 227.542 69.7646Z" fill="#3F4553"/>
<path d="M206.261 88.0284C206.193 87.8833 206.133 87.7462 206.076 87.6171C205.646 86.617 205.107 85.6653 204.467 84.7983C203.461 83.4272 202.387 82.7175 201.28 82.6933C200.564 82.6772 199.88 82.9554 199.248 83.2579C198.202 83.7579 197.233 84.4878 196.299 85.1895C195.84 85.5323 195.366 85.8912 194.895 86.2057C192.662 87.7139 190.517 89.3995 188.525 91.2182C188.071 91.6336 187.938 92.0731 188.167 92.3958C188.425 92.7547 188.932 92.67 189.125 92.6377L194.742 91.686C193.627 92.5611 192.617 93.5047 191.559 94.4967C191.233 94.7992 190.911 95.1057 190.582 95.4081C190.304 95.6662 190.05 95.9566 190.075 96.3356C190.111 96.8558 190.646 97.13 191.097 97.2067C191.29 97.2389 191.483 97.2551 191.676 97.2551C192.71 97.2551 193.716 96.8276 194.549 96.4727L203.139 92.8071C203.328 92.7264 203.521 92.6458 203.715 92.5651C204.407 92.2748 205.123 91.9764 205.791 91.6134C206.229 91.3755 206.519 91.0973 206.684 90.7626C206.7 90.7303 206.716 90.694 206.728 90.6617C207.078 89.7907 206.628 88.8148 206.261 88.0284Z" fill="#3F4553"/>
<path d="M215.166 136C215.145 136.75 215.041 138.722 213.802 138.315C213.142 138.097 212.667 137.319 212.043 136.984C211.291 136.581 210.619 137.73 211.371 138.134C212.482 138.73 213.178 140.073 214.643 139.61C216.192 139.122 216.453 137.4 216.489 136C216.518 135.141 215.19 135.141 215.166 136Z" fill="#D9A4D1"/>
<path d="M208.856 148.941C208.752 149.401 208.651 149.861 208.547 150.324C208.498 150.55 208.49 150.889 208.374 151.091C208.317 151.191 208.325 151.232 208.337 151.248C208.321 151.244 208.289 151.24 208.221 151.24C207.915 151.248 207.344 150.824 207.082 150.691C206.668 150.482 206.261 150.26 205.855 150.034C205.106 149.615 204.439 150.764 205.183 151.183C205.831 151.546 206.487 151.893 207.159 152.208C207.633 152.433 208.189 152.772 208.74 152.611C209.211 152.474 209.468 152.058 209.609 151.615C209.846 150.869 209.963 150.058 210.132 149.292C210.325 148.461 209.046 148.102 208.856 148.941Z" fill="#D9A4D1"/>
<path d="M217.149 144.566C216.988 143.723 215.709 144.082 215.866 144.92C215.974 145.501 216.252 146.84 215.407 147.058C215.109 147.134 214.775 146.884 214.534 146.747C214.204 146.558 213.878 146.384 213.516 146.263C212.703 145.993 212.353 147.276 213.162 147.55C213.733 147.739 214.192 148.171 214.779 148.328C215.343 148.477 215.91 148.38 216.381 148.034C217.499 147.203 217.379 145.775 217.149 144.566Z" fill="#D9A4D1"/>
<path d="M218.9 152.268C218.827 151.421 217.499 151.413 217.572 152.268C217.604 152.635 217.616 152.998 217.596 153.365C217.576 153.708 217.471 154.042 217.435 154.377C217.331 154.309 217.214 154.236 217.186 154.212C216.872 153.986 216.554 153.76 216.24 153.534C215.544 153.034 214.88 154.188 215.568 154.684C216.252 155.176 217.504 156.502 218.348 155.623C218.686 155.272 218.759 154.655 218.831 154.196C218.932 153.554 218.952 152.917 218.9 152.268Z" fill="#D9A4D1"/>
<path d="M184.659 112.982C184.288 113.769 183.633 115.309 182.494 114.987C181.669 114.753 181.094 113.361 180.671 112.7C180.213 111.982 179.058 112.648 179.525 113.373C180.253 114.511 181.041 116.265 182.599 116.35C184.248 116.438 185.19 114.962 185.805 113.656C186.172 112.886 185.025 112.208 184.659 112.982Z" fill="#D9A4D1"/>
<path d="M194.734 111.502C194.255 112.325 193.66 113.325 192.815 113.833C191.817 114.434 190.682 112.716 190.071 112.079C189.475 111.458 188.538 112.402 189.129 113.023C190.067 113.998 191.157 115.736 192.742 115.317C194.179 114.938 195.18 113.373 195.881 112.18C196.315 111.434 195.168 110.764 194.734 111.502Z" fill="#D9A4D1"/>
<path d="M203.831 110.002C203.469 110.772 203.123 112.026 202.431 112.587C201.912 113.006 201.513 112.397 201.184 112.014C200.825 111.595 200.471 111.176 200.117 110.76C199.562 110.107 198.625 111.051 199.176 111.704C199.964 112.635 200.986 114.454 202.459 114.075C203.875 113.708 204.431 111.829 204.974 110.676C205.344 109.905 204.197 109.228 203.831 110.002Z" fill="#D9A4D1"/>
<path d="M213.206 108.994C212.864 109.474 212.522 109.95 212.18 110.43C211.931 110.776 211.52 111.664 211.154 111.865C210.124 112.434 209.098 110.809 208.832 110.047C208.551 109.244 207.267 109.587 207.549 110.401C208.02 111.748 209.187 113.228 210.715 113.406C211.391 113.482 211.822 113.148 212.22 112.648C212.977 111.696 213.645 110.659 214.353 109.671C214.852 108.97 213.701 108.304 213.206 108.994Z" fill="#D9A4D1"/>
<path d="M188.634 121.955C188.541 122.81 188.352 124.572 187.129 124.548C186.316 124.532 185.25 123.358 184.639 122.898C183.955 122.382 183.291 123.54 183.967 124.048C185.117 124.911 186.445 126.362 188.014 125.685C189.511 125.04 189.809 123.407 189.966 121.955C190.054 121.104 188.723 121.112 188.634 121.955Z" fill="#D9A4D1"/>
<path d="M200.097 119.951C199.908 120.878 199.558 122.096 198.798 122.729C197.687 123.653 196.673 122.16 196.142 121.354C195.671 120.64 194.521 121.31 194.995 122.027C195.8 123.249 196.991 124.697 198.653 124.298C200.286 123.907 201.087 121.765 201.385 120.305C201.55 119.467 200.266 119.108 200.097 119.951Z" fill="#D9A4D1"/>
<path d="M211.633 118.644C211.23 119.491 210.824 120.576 209.939 120.951C209.227 121.253 208.848 120.91 208.309 120.406C207.935 120.059 207.653 119.66 207.396 119.221C206.961 118.483 205.815 119.152 206.249 119.894C206.949 121.092 208.261 122.564 209.778 122.548C211.371 122.531 212.204 120.535 212.784 119.313C213.146 118.547 211.999 117.87 211.633 118.644Z" fill="#D9A4D1"/>
<path d="M192.798 132.807C192.533 133.25 192.271 133.694 192.006 134.137C191.845 134.407 191.487 135.331 191.213 135.468C190.388 135.875 189.213 134.339 188.799 133.803C188.276 133.125 187.342 134.077 187.857 134.746C188.549 135.641 190.054 137.234 191.342 136.988C191.893 136.884 192.187 136.424 192.456 135.976C192.959 135.149 193.446 134.315 193.941 133.484C194.384 132.742 193.237 132.069 192.798 132.807Z" fill="#D9A4D1"/>
<path d="M201.256 130.448C201.051 131.242 200.399 133.682 199.208 133.504C198.512 133.399 197.832 132.29 197.277 131.875C196.589 131.363 195.925 132.52 196.605 133.024C197.675 133.819 198.419 135.275 199.992 134.722C201.497 134.194 202.181 132.194 202.535 130.802C202.749 129.972 201.469 129.617 201.256 130.448Z" fill="#D9A4D1"/>
<path d="M211.267 127.04C210.848 127.923 210.494 129.169 209.842 129.899C209.327 130.476 208.973 130.214 208.519 129.73C208.132 129.318 207.75 128.903 207.364 128.488C206.78 127.859 205.843 128.802 206.422 129.431C207.283 130.355 208.317 132.028 209.802 131.548C211.283 131.069 211.822 128.968 212.413 127.713C212.78 126.939 211.633 126.262 211.267 127.04Z" fill="#D9A4D1"/>
<path d="M199.341 142.336C199.16 142.912 198.971 143.485 198.778 144.058C198.709 144.263 198.661 144.675 198.512 144.836C198.005 145.392 197.731 144.993 197.422 144.626C196.891 144.005 196.5 143.388 195.655 143.191C194.822 142.993 194.468 144.279 195.301 144.477C196.005 144.642 196.295 145.453 196.794 145.908C197.245 146.32 197.848 146.634 198.476 146.538C199.087 146.445 199.466 145.997 199.695 145.453C200.073 144.566 200.331 143.606 200.624 142.686C200.882 141.872 199.602 141.521 199.341 142.336Z" fill="#D9A4D1"/>
<path d="M207.879 139.182C207.432 139.932 207.465 140.88 207.014 141.598C206.612 142.239 205.996 141.856 205.473 141.537C205.014 141.259 204.555 140.977 204.097 140.698C203.365 140.251 202.697 141.404 203.425 141.848C204.487 142.497 205.924 143.812 207.243 143.17C208.571 142.525 208.378 140.948 209.026 139.852C209.464 139.118 208.318 138.444 207.879 139.182Z" fill="#D9A4D1"/>
<path d="M242.071 129.548C241.625 129.222 241.178 128.895 240.727 128.568C240.438 128.355 239.987 128.52 239.818 128.806C239.621 129.145 239.766 129.504 240.055 129.718C240.502 130.044 240.949 130.371 241.399 130.698C241.689 130.911 242.14 130.746 242.309 130.46C242.51 130.121 242.365 129.762 242.071 129.548Z" fill="#B98BB2"/>
<path d="M246.501 131.802C246.131 131.266 245.696 130.822 245.177 130.431C244.892 130.214 244.433 130.383 244.268 130.669C244.071 131.008 244.22 131.363 244.505 131.581C244.779 131.786 245.149 132.177 245.354 132.472C245.56 132.766 245.938 132.903 246.264 132.71C246.553 132.54 246.706 132.097 246.501 131.802Z" fill="#B98BB2"/>
<path d="M243.998 125.677C243.415 125.153 242.828 124.628 242.244 124.1C241.608 123.527 240.667 124.467 241.303 125.044C241.886 125.568 242.474 126.092 243.057 126.62C243.693 127.189 244.638 126.249 243.998 125.677Z" fill="#B98BB2"/>
<path d="M240.389 109.264C239.826 108.897 239.315 108.437 238.905 107.897C238.687 107.611 238.333 107.462 237.995 107.659C237.714 107.824 237.541 108.28 237.758 108.571C238.309 109.3 238.949 109.913 239.717 110.413C240.438 110.885 241.106 109.732 240.389 109.264Z" fill="#B98BB2"/>
<path d="M245.865 113.446C245.334 112.865 244.839 112.252 244.385 111.607C244.18 111.313 243.805 111.176 243.475 111.369C243.186 111.539 243.029 111.986 243.238 112.281C243.757 113.019 244.316 113.724 244.928 114.39C245.503 115.019 246.441 114.075 245.865 113.446Z" fill="#B98BB2"/>
<path d="M246.711 118.918C246.244 118.313 245.822 117.672 245.431 117.015C244.997 116.277 243.846 116.946 244.284 117.688C244.731 118.446 245.23 119.164 245.769 119.862C245.991 120.148 246.477 120.092 246.711 119.862C246.992 119.576 246.932 119.2 246.711 118.918Z" fill="#B98BB2"/>
<path d="M251.289 120.237C250.794 119.507 250.303 118.773 249.809 118.043C249.334 117.337 248.179 118.003 248.662 118.717C249.157 119.446 249.648 120.18 250.142 120.91C250.621 121.616 251.772 120.951 251.289 120.237Z" fill="#B98BB2"/>
<path d="M251.145 125.37C250.646 124.689 250.115 124.036 249.531 123.423C248.94 122.802 248.002 123.745 248.59 124.366C249.093 124.895 249.563 125.451 249.994 126.044C250.207 126.334 250.569 126.479 250.903 126.282C251.193 126.112 251.358 125.661 251.145 125.37Z" fill="#B98BB2"/>
<path d="M236.342 109.667L234.793 108.224C234.165 107.639 233.223 108.579 233.851 109.167C234.366 109.647 234.885 110.131 235.4 110.611C236.028 111.192 236.969 110.252 236.342 109.667Z" fill="#B98BB2"/>
<path d="M240.989 114.781C240.462 114.16 239.939 113.535 239.412 112.914C239.178 112.64 238.712 112.676 238.47 112.914C238.201 113.188 238.237 113.579 238.47 113.857L240.047 115.724C240.281 115.999 240.747 115.962 240.989 115.724C241.258 115.454 241.222 115.059 240.989 114.781Z" fill="#B98BB2"/>
<path d="M245.157 121.334C244.61 120.701 244.063 120.063 243.516 119.43C242.956 118.781 242.019 119.725 242.574 120.374C243.121 121.007 243.669 121.644 244.216 122.277C244.775 122.927 245.713 121.979 245.157 121.334Z" fill="#B98BB2"/>
<path d="M232.471 110.905C232.021 110.28 231.57 109.659 231.119 109.034C230.91 108.744 230.54 108.603 230.21 108.796C229.924 108.966 229.759 109.413 229.972 109.708C230.423 110.333 230.874 110.954 231.324 111.579C231.534 111.869 231.904 112.01 232.234 111.817C232.519 111.647 232.684 111.196 232.471 110.905Z" fill="#B98BB2"/>
<path d="M229.32 113.494C228.934 112.926 228.516 112.381 228.061 111.865C227.824 111.595 227.365 111.623 227.119 111.865C226.854 112.131 226.882 112.538 227.119 112.809C227.498 113.24 227.848 113.692 228.17 114.168C228.371 114.466 228.753 114.595 229.079 114.406C229.377 114.232 229.522 113.793 229.32 113.494Z" fill="#B98BB2"/>
<path d="M227.381 117.543C226.822 116.845 226.259 116.148 225.699 115.45C225.474 115.168 224.995 115.216 224.758 115.45C224.48 115.728 224.532 116.111 224.758 116.394C225.317 117.091 225.88 117.789 226.44 118.487C226.665 118.769 227.144 118.721 227.381 118.487C227.659 118.204 227.606 117.821 227.381 117.543Z" fill="#B98BB2"/>
<path d="M227.924 123.786C227.542 123.278 227.16 122.769 226.782 122.257C226.564 121.971 226.206 121.822 225.872 122.019C225.591 122.185 225.418 122.64 225.635 122.931C226.017 123.439 226.399 123.947 226.778 124.459C226.995 124.745 227.353 124.895 227.687 124.697C227.969 124.532 228.142 124.076 227.924 123.786Z" fill="#B98BB2"/>
<path d="M232.656 118.918C232.097 118.45 231.586 117.922 231.159 117.333C230.95 117.043 230.58 116.898 230.25 117.095C229.964 117.265 229.799 117.712 230.013 118.007C230.511 118.692 231.071 119.317 231.719 119.862C231.992 120.092 232.39 120.132 232.66 119.862C232.893 119.624 232.93 119.148 232.656 118.918Z" fill="#B98BB2"/>
<path d="M236.088 115.926C235.714 115.337 235.34 114.748 234.97 114.156C234.511 113.434 233.36 114.103 233.823 114.829C234.197 115.418 234.571 116.007 234.942 116.599C235.396 117.321 236.547 116.652 236.088 115.926Z" fill="#B98BB2"/>
<path d="M233.151 125.439C232.708 124.774 232.262 124.108 231.819 123.443C231.344 122.733 230.194 123.399 230.672 124.116C231.115 124.782 231.562 125.447 232.004 126.112C232.475 126.822 233.626 126.157 233.151 125.439Z" fill="#B98BB2"/>
<path d="M232.121 131.327C231.831 130.952 231.542 130.577 231.252 130.201C231.031 129.915 230.544 129.972 230.31 130.201C230.029 130.484 230.089 130.859 230.31 131.145C230.6 131.52 230.89 131.895 231.179 132.27C231.401 132.557 231.888 132.5 232.121 132.27C232.399 131.988 232.342 131.613 232.121 131.327Z" fill="#B98BB2"/>
<path d="M237.372 124.092L236.165 122.418C235.955 122.128 235.585 121.987 235.255 122.181C234.97 122.35 234.805 122.797 235.018 123.092C235.42 123.648 235.823 124.209 236.225 124.765C236.434 125.056 236.804 125.197 237.134 125.003C237.42 124.834 237.585 124.386 237.372 124.092Z" fill="#B98BB2"/>
<path d="M240.333 120.644C239.874 120.027 239.42 119.406 238.961 118.789C238.748 118.499 238.386 118.354 238.052 118.551C237.766 118.717 237.597 119.172 237.814 119.463C238.273 120.08 238.728 120.701 239.186 121.318C239.4 121.608 239.762 121.753 240.096 121.556C240.377 121.39 240.546 120.934 240.333 120.644Z" fill="#B98BB2"/>
<path d="M237.303 129.673C236.82 129.399 236.414 129.036 236.108 128.572C235.911 128.274 235.521 128.145 235.199 128.334C234.901 128.508 234.76 128.943 234.962 129.246C235.392 129.899 235.955 130.439 236.635 130.827C237.376 131.246 238.048 130.097 237.303 129.673Z" fill="#B98BB2"/>
<path d="M236.973 135.569C236.474 135.145 236.02 134.669 235.646 134.133C235.44 133.839 235.066 133.702 234.736 133.895C234.447 134.065 234.29 134.512 234.499 134.807C234.941 135.436 235.448 136.012 236.036 136.512C236.309 136.746 236.708 136.783 236.977 136.512C237.215 136.27 237.251 135.803 236.973 135.569Z" fill="#B98BB2"/>
<path d="M240.848 136.549C240.908 136.593 240.763 136.48 240.751 136.472C240.687 136.416 240.623 136.355 240.562 136.295C240.458 136.19 240.365 136.077 240.313 136.004C240.104 135.714 239.733 135.573 239.403 135.766C239.114 135.936 238.957 136.383 239.166 136.678C239.452 137.081 239.778 137.408 240.176 137.698C240.466 137.912 240.916 137.746 241.085 137.46C241.282 137.121 241.138 136.762 240.848 136.549Z" fill="#B98BB2"/>
<path d="M174.149 34.2977C172.443 35.6567 170.645 36.8584 168.762 37.9392C169.514 34.3421 170.979 30.9305 171.55 27.289C171.614 26.8777 171.184 26.3938 170.765 26.6882C168.633 28.1843 166.625 29.8135 164.722 31.5999C164.219 32.0717 164.983 32.8178 165.482 32.35C166.999 30.9265 168.593 29.6038 170.262 28.3698C169.506 31.8983 168.078 35.2535 167.506 38.8344C167.434 39.2901 167.856 39.6692 168.291 39.4353C170.633 38.165 172.821 36.7052 174.906 35.0478C175.449 34.6203 174.684 33.8743 174.149 34.2977Z" fill="#DCC272"/>
<path d="M175.119 27.5955C174.483 28.1964 173.847 28.8013 173.212 29.4022C172.713 29.874 173.473 30.624 173.972 30.1522L175.879 28.3456C176.378 27.8738 175.618 27.1237 175.119 27.5955Z" fill="#DCC272"/>
<path d="M185.641 21.7079C183.882 23.1677 182.124 24.6316 180.366 26.0914C180.201 21.6555 180.032 17.2156 179.867 12.7797C179.851 12.3765 179.424 12.1023 179.062 12.316C177.074 13.4975 175.272 14.8444 173.57 16.4091C173.063 16.8728 173.823 17.6229 174.33 17.1592C175.738 15.8687 177.235 14.7356 178.837 13.7234C179.006 18.2117 179.175 22.7 179.34 27.1883C179.36 27.6843 179.899 27.8577 180.253 27.5633C182.301 25.8615 184.349 24.1557 186.397 22.454C186.928 22.0185 186.168 21.2724 185.641 21.7079Z" fill="#DCC272"/>
<path d="M186.184 12.7556L183.106 15.6389C182.603 16.1107 183.363 16.8568 183.866 16.389C184.892 15.4292 185.918 14.4654 186.944 13.5057C187.447 13.0338 186.687 12.2838 186.184 12.7556Z" fill="#DCC272"/>
<path d="M199.953 10.0658C197.245 11.9531 194.662 13.9855 192.183 16.1591C192.469 10.9247 193.104 5.7267 193.772 0.52866C193.825 0.109268 193.286 -0.120591 192.968 0.0649095C190.735 1.39567 188.687 2.92 186.767 4.67419C186.26 5.13794 187.021 5.888 187.528 5.42425C189.109 3.98058 190.779 2.71434 192.573 1.57714C191.905 6.83163 191.282 12.0902 191.052 17.389C191.032 17.885 191.64 18.0625 191.966 17.764C194.67 15.3243 197.506 13.0661 200.496 10.9852C201.055 10.5981 200.52 9.67463 199.953 10.0658Z" fill="#DCC272"/>
</svg>
