<svg width="50" height="50" viewBox="0 0 50 50" fill="none" xmlns="http://www.w3.org/2000/svg">
<g clip-path="url(#clip0_823_1284)">
<path d="M47.5936 14.2855C47.4201 13.9201 46.9829 13.7646 46.6178 13.9383C46.2524 14.1118 46.0969 14.5487 46.2705 14.9141C47.7732 18.0773 48.5351 21.4709 48.5351 25.0005C48.5351 31.287 46.0871 37.1971 41.6418 41.6424C37.1967 46.0876 31.2865 48.5356 24.9999 48.5356C21.2717 48.5356 17.7063 47.6895 14.403 46.0209C11.6505 44.6304 9.1639 42.6784 7.14476 40.3327L10.0345 41.296C10.4182 41.4239 10.833 41.2165 10.961 40.8327C11.0889 40.4489 10.8815 40.0342 10.4977 39.9062L5.29749 38.1728C5.05667 38.0926 4.79143 38.1426 4.59661 38.3053C4.40179 38.468 4.30501 38.72 4.34085 38.9713L5.20755 45.0382C5.25979 45.4035 5.57308 45.6671 5.93177 45.6671C5.96624 45.6671 6.0011 45.6646 6.03626 45.6596C6.43675 45.6024 6.71497 45.2314 6.65774 44.831L6.17415 41.446C8.29319 43.8659 10.8819 45.8833 13.7426 47.3284C17.2526 49.1014 21.0401 50.0005 24.9999 50.0005C31.6777 50.0005 37.9558 47.4 42.6777 42.6782C47.3995 37.9562 50 31.6782 50 25.0005C50 21.2517 49.1904 17.6468 47.5936 14.2855Z" fill="#272343"/>
<path d="M45.6592 11.0293L44.7925 4.9624C44.7353 4.56191 44.3634 4.28389 43.9639 4.34092C43.5634 4.39814 43.2852 4.76914 43.3424 5.16953L43.8255 8.55117C39.0691 3.10156 32.2791 0 25 0C18.3223 0 12.0442 2.60049 7.32227 7.32227C2.60049 12.0442 0 18.3223 0 25C0 28.7488 0.809668 32.3539 2.40635 35.7149C2.53174 35.9789 2.79443 36.1333 3.06846 36.1333C3.17373 36.1333 3.28076 36.1105 3.38223 36.0622C3.74756 35.8887 3.90303 35.4518 3.72949 35.0863C2.22676 31.9233 1.46484 28.5298 1.46484 25C1.46484 18.7135 3.91289 12.8033 8.35811 8.35811C12.8033 3.91289 18.7135 1.46484 25 1.46484C31.9195 1.46484 38.3694 4.44277 42.8531 9.66709L39.9655 8.70459C39.5815 8.57647 39.1669 8.78408 39.0391 9.16787C38.9112 9.55166 39.1185 9.96641 39.5022 10.0943L44.7024 11.8277C44.7782 11.8529 44.8563 11.8653 44.934 11.8653C45.1031 11.8653 45.2697 11.8067 45.4034 11.6952C45.5982 11.5325 45.695 11.2806 45.6592 11.0293Z" fill="#272343"/>
<path d="M22.9646 32.8784H15.5971C15.8913 30.3149 17.7129 28.595 19.6318 26.7831C21.6305 24.896 23.6971 22.9446 23.6971 20.0144C23.6971 17.6113 21.5424 15.6562 18.8939 15.6562C16.2455 15.6562 14.0908 17.6113 14.0908 20.0144C14.0908 20.4188 14.4187 20.7468 14.8232 20.7468C15.2277 20.7468 15.5557 20.4188 15.5557 20.0144C15.5557 18.419 17.0531 17.1211 18.8939 17.1211C20.7348 17.1211 22.2322 18.419 22.2322 20.0144C22.2322 22.3132 20.4806 23.9671 18.6262 25.7181C16.5003 27.7253 14.0908 30.0004 14.0908 33.6108C14.0908 34.0153 14.4187 34.3433 14.8232 34.3433H22.9646C23.3691 34.3433 23.6971 34.0153 23.6971 33.6108C23.6971 33.2063 23.3691 32.8784 22.9646 32.8784Z" fill="#272343"/>
<path d="M35.1768 28.1813H34.3436V16.3887C34.3436 15.9842 34.0157 15.6562 33.6111 15.6562C33.2065 15.6562 32.8787 15.9842 32.8787 16.3887V28.1814H26.6654L28.8512 16.5237C28.9258 16.1262 28.6639 15.7434 28.2663 15.6688C27.8691 15.5947 27.4861 15.8562 27.4115 16.2537L25.0631 28.7789C25.0229 28.9931 25.0802 29.214 25.2193 29.3816C25.3585 29.5493 25.565 29.6463 25.7829 29.6463H32.8787V33.6108C32.8787 34.0152 33.2065 34.3432 33.6111 34.3432C34.0157 34.3432 34.3436 34.0152 34.3436 33.6107V29.6462H35.1768C35.5814 29.6462 35.9092 29.3183 35.9092 28.9138C35.9092 28.5093 35.5814 28.1813 35.1768 28.1813Z" fill="#272343"/>
<path d="M25 3.91406C24.5955 3.91406 24.2676 4.24199 24.2676 4.64648V7.77773C24.2676 8.18223 24.5955 8.51016 25 8.51016C25.4046 8.51016 25.7324 8.18223 25.7324 7.77773V4.64648C25.7324 4.24199 25.4046 3.91406 25 3.91406Z" fill="#272343"/>
<path d="M25 41.4902C24.5955 41.4902 24.2676 41.8182 24.2676 42.2227V45.3539C24.2676 45.7584 24.5955 46.0863 25 46.0863C25.4046 46.0863 25.7324 45.7584 25.7324 45.3539V42.2227C25.7324 41.8182 25.4046 41.4902 25 41.4902Z" fill="#272343"/>
<path d="M45.3534 24.2676H42.2222C41.8176 24.2676 41.4897 24.5955 41.4897 25C41.4897 25.4045 41.8176 25.7324 42.2222 25.7324H45.3534C45.758 25.7324 46.0858 25.4045 46.0858 25C46.0858 24.5955 45.758 24.2676 45.3534 24.2676Z" fill="#272343"/>
<path d="M7.77773 24.2676H4.64648C4.24199 24.2676 3.91406 24.5955 3.91406 25C3.91406 25.4045 4.24199 25.7324 4.64648 25.7324H7.77773C8.18223 25.7324 8.51016 25.4045 8.51016 25C8.51016 24.5955 8.18223 24.2676 7.77773 24.2676Z" fill="#272343"/>
</g>
<defs>
<clipPath id="clip0_823_1284">
<rect width="50" height="50" fill="white"/>
</clipPath>
</defs>
</svg>
