<svg width="20" height="19" viewBox="0 0 20 19" fill="none" xmlns="http://www.w3.org/2000/svg">
<path d="M1.52075 0.979004L3.42742 1.309L4.31017 11.8259C4.34408 12.2398 4.53278 12.6256 4.83861 12.9065C5.14445 13.1873 5.54494 13.3426 5.96017 13.3412H15.961C16.3586 13.3416 16.743 13.1985 17.0434 12.9381C17.3439 12.6777 17.5402 12.3176 17.5963 11.924L18.4672 5.9125C18.4904 5.75263 18.4819 5.58975 18.4421 5.43317C18.4023 5.27659 18.332 5.12939 18.2353 4.99999C18.1386 4.87058 18.0173 4.76151 17.8784 4.67901C17.7395 4.5965 17.5857 4.54219 17.4258 4.51917C17.3672 4.51275 3.73359 4.50817 3.73359 4.50817" stroke="#272343" stroke-width="1.5" stroke-linecap="round" stroke-linejoin="round"/>
<path d="M11.9478 7.89502H14.4897" stroke="#272343" stroke-width="1.5" stroke-linecap="round" stroke-linejoin="round"/>
<path fill-rule="evenodd" clip-rule="evenodd" d="M5.55786 16.519C5.62508 16.5161 5.69219 16.5269 5.75515 16.5506C5.81811 16.5744 5.87562 16.6106 5.9242 16.6571C5.97279 16.7037 6.01145 16.7596 6.03787 16.8215C6.06428 16.8833 6.0779 16.9499 6.0779 17.0172C6.0779 17.0845 6.06428 17.1511 6.03787 17.213C6.01145 17.2749 5.97279 17.3308 5.9242 17.3773C5.87562 17.4239 5.81811 17.4601 5.75515 17.4838C5.69219 17.5076 5.62508 17.5183 5.55786 17.5154C5.42942 17.5099 5.30808 17.455 5.21914 17.3622C5.13021 17.2694 5.08057 17.1458 5.08057 17.0172C5.08057 16.8887 5.13021 16.7651 5.21914 16.6723C5.30808 16.5794 5.42942 16.5245 5.55786 16.519Z" fill="#272343" stroke="#272343" stroke-width="1.5" stroke-linecap="round" stroke-linejoin="round"/>
<path fill-rule="evenodd" clip-rule="evenodd" d="M15.8988 16.519C16.0312 16.519 16.1583 16.5717 16.252 16.6654C16.3457 16.7591 16.3983 16.8861 16.3983 17.0186C16.3983 17.1511 16.3457 17.2782 16.252 17.3719C16.1583 17.4656 16.0312 17.5182 15.8988 17.5182C15.7663 17.5182 15.6392 17.4656 15.5455 17.3719C15.4518 17.2782 15.3992 17.1511 15.3992 17.0186C15.3992 16.8861 15.4518 16.7591 15.5455 16.6654C15.6392 16.5717 15.7663 16.519 15.8988 16.519V16.519Z" fill="#272343" stroke="#272343" stroke-width="1.5" stroke-linecap="round" stroke-linejoin="round"/>
</svg>
