<svg width="348" height="110" viewBox="0 0 348 110" fill="none" xmlns="http://www.w3.org/2000/svg">
<g filter="url(#filter0_d_102_37)">
<mask id="path-1-inside-1_102_37" fill="white">
<path fill-rule="evenodd" clip-rule="evenodd" d="M3 9C3 4.58172 6.58172 1 11 1H337C341.418 1 345 4.58172 345 9V36.5815C344.669 36.5611 344.336 36.5507 344 36.5507C335.163 36.5507 328 43.7142 328 52.5507C328 61.3873 335.163 68.5507 344 68.5507C344.336 68.5507 344.669 68.5404 345 68.52V97C345 101.418 341.418 105 337 105H11C6.58173 105 3 101.418 3 97V68.5507C11.8366 68.5507 19 61.3873 19 52.5507C19 43.7142 11.8366 36.5507 3 36.5507V9Z"/>
</mask>
<path fill-rule="evenodd" clip-rule="evenodd" d="M3 9C3 4.58172 6.58172 1 11 1H337C341.418 1 345 4.58172 345 9V36.5815C344.669 36.5611 344.336 36.5507 344 36.5507C335.163 36.5507 328 43.7142 328 52.5507C328 61.3873 335.163 68.5507 344 68.5507C344.336 68.5507 344.669 68.5404 345 68.52V97C345 101.418 341.418 105 337 105H11C6.58173 105 3 101.418 3 97V68.5507C11.8366 68.5507 19 61.3873 19 52.5507C19 43.7142 11.8366 36.5507 3 36.5507V9Z" fill="#FDEFEE"/>
<path d="M345 36.5815L344.938 37.5796L346 37.645V36.5815H345ZM345 68.52H346V67.4564L344.938 67.5219L345 68.52ZM3 68.5507V67.5507H2V68.5507H3ZM3 36.5507H2V37.5507H3V36.5507ZM11 0C6.02944 0 2 4.02944 2 9H4C4 5.13401 7.13401 2 11 2V0ZM337 0H11V2H337V0ZM346 9C346 4.02944 341.971 0 337 0V2C340.866 2 344 5.13401 344 9H346ZM346 36.5815V9H344V36.5815H346ZM344 37.5507C344.315 37.5507 344.628 37.5604 344.938 37.5796L345.062 35.5834C344.71 35.5617 344.356 35.5507 344 35.5507V37.5507ZM329 52.5507C329 44.2664 335.716 37.5507 344 37.5507V35.5507C334.611 35.5507 327 43.1619 327 52.5507H329ZM344 67.5507C335.716 67.5507 329 60.835 329 52.5507H327C327 61.9396 334.611 69.5507 344 69.5507V67.5507ZM344.938 67.5219C344.628 67.541 344.315 67.5507 344 67.5507V69.5507C344.356 69.5507 344.71 69.5397 345.062 69.5181L344.938 67.5219ZM346 97V68.52H344V97H346ZM337 106C341.971 106 346 101.971 346 97H344C344 100.866 340.866 104 337 104V106ZM11 106H337V104H11V106ZM2 97C2 101.971 6.02945 106 11 106V104C7.13402 104 4 100.866 4 97H2ZM2 68.5507V97H4V68.5507H2ZM18 52.5507C18 60.835 11.2843 67.5507 3 67.5507V69.5507C12.3888 69.5507 20 61.9396 20 52.5507H18ZM3 37.5507C11.2843 37.5507 18 44.2664 18 52.5507H20C20 43.1619 12.3888 35.5507 3 35.5507V37.5507ZM2 9V36.5507H4V9H2Z" fill="#F8CCCC" mask="url(#path-1-inside-1_102_37)"/>
</g>
<path d="M127 9.55072V94.5507" stroke="black" stroke-opacity="0.2" stroke-width="2" stroke-linejoin="round" stroke-dasharray="7 7"/>
<defs>
<filter id="filter0_d_102_37" x="0" y="0" width="348" height="110" filterUnits="userSpaceOnUse" color-interpolation-filters="sRGB">
<feFlood flood-opacity="0" result="BackgroundImageFix"/>
<feColorMatrix in="SourceAlpha" type="matrix" values="0 0 0 0 0 0 0 0 0 0 0 0 0 0 0 0 0 0 127 0" result="hardAlpha"/>
<feOffset dy="2"/>
<feGaussianBlur stdDeviation="1.5"/>
<feComposite in2="hardAlpha" operator="out"/>
<feColorMatrix type="matrix" values="0 0 0 0 0.972549 0 0 0 0 0.8 0 0 0 0 0.8 0 0 0 0.25 0"/>
<feBlend mode="normal" in2="BackgroundImageFix" result="effect1_dropShadow_102_37"/>
<feBlend mode="normal" in="SourceGraphic" in2="effect1_dropShadow_102_37" result="shape"/>
</filter>
</defs>
</svg>
