<svg width="64" height="39" viewBox="0 0 64 39" fill="none" xmlns="http://www.w3.org/2000/svg">
<path d="M13.9634 30.5869C12.8939 30.5869 12.0239 31.4569 12.0239 32.5264C12.0239 33.5959 12.8939 34.4659 13.9634 34.4659C15.0329 34.4659 15.9029 33.5959 15.9029 32.5264C15.9029 31.4569 15.0329 30.5869 13.9634 30.5869Z" fill="#272343"/>
<path d="M54.0445 30.5869C52.975 30.5869 52.105 31.4569 52.105 32.5264C52.105 33.5959 52.975 34.4659 54.0445 34.4659C55.114 34.4659 55.984 33.5959 55.984 32.5264C55.984 31.4569 55.114 30.5869 54.0445 30.5869Z" fill="#272343"/>
<path d="M61.9886 18.154L54.7706 15.748L51.397 6.47074C50.9759 5.31262 49.865 4.53449 48.6326 4.53449H39.9516V2.46587C39.9516 1.39637 39.0816 0.526367 38.0121 0.526367H1.9395C0.87 0.526367 0 1.39649 0 2.46599V29.5205C0 30.59 0.87 31.46 1.9395 31.46H8.11375C8.05075 31.8062 8.01612 32.1624 8.01612 32.5265C8.01612 35.806 10.6842 38.4741 13.9637 38.4741C17.2432 38.4741 19.9114 35.806 19.9114 32.5265C19.9114 32.1622 19.8767 31.8062 19.8137 31.46H48.1946C48.1316 31.8062 48.097 32.1624 48.097 32.5265C48.097 35.806 50.7651 38.4741 54.0446 38.4741C57.3241 38.4741 59.9922 35.806 59.9922 32.5265C59.9922 32.0632 59.9372 31.6127 59.8366 31.1797L61.8205 30.1879C63.1647 29.5155 64 28.1639 64 26.6605V20.9446C64 19.6766 63.1917 18.5551 61.9886 18.154ZM1.875 2.46599C1.875 2.43037 1.90387 2.40137 1.9395 2.40137H38.0121C38.0477 2.40137 38.0766 2.43024 38.0766 2.46587V22.5707H1.875V2.46599ZM13.9636 36.5991C11.718 36.5991 9.891 34.7721 9.891 32.5265C9.891 30.2809 11.718 28.4539 13.9636 28.4539C16.2092 28.4539 18.0362 30.2809 18.0362 32.5265C18.0364 34.7721 16.2094 36.5991 13.9636 36.5991ZM38.0766 29.5849H19.1297C18.1044 27.7912 16.1735 26.5789 13.9636 26.5789C11.7537 26.5789 9.823 27.7912 8.79762 29.5849H1.9395C1.90387 29.5849 1.875 29.556 1.875 29.5204V24.4457H38.0766V29.5849ZM50.8372 10.4176L52.706 15.5567H50.693L48.8242 10.4176H50.8372ZM39.9516 6.40949H48.6326C49.0795 6.40949 49.4822 6.69162 49.635 7.11149L50.1554 8.54249H39.9516V6.40949ZM39.9516 10.4176H46.8291L48.6979 15.5567H39.9516V10.4176V10.4176ZM54.0444 36.5991C51.7988 36.5991 49.9717 34.7721 49.9717 32.5265C49.9717 30.2809 51.7988 28.4539 54.0444 28.4539C56.29 28.4539 58.117 30.2809 58.117 32.5265C58.117 34.7721 56.29 36.5991 54.0444 36.5991ZM62.125 22.5706H61.0585C60.5407 22.5706 60.121 22.9904 60.121 23.5081C60.121 24.0259 60.5407 24.4456 61.0585 24.4456H62.125V26.6604C62.125 27.4491 61.6869 28.158 60.9816 28.5107L59.1258 29.4386C58.0808 27.7252 56.194 26.5789 54.0444 26.5789C51.8345 26.5789 49.9038 27.7912 48.8784 29.5849H39.9516V24.4457H57.0505C57.5682 24.4457 57.988 24.026 57.988 23.5082C57.988 22.9905 57.5682 22.5707 57.0505 22.5707H39.9516V17.4316H53.8923L61.3957 19.9327C61.832 20.0781 62.125 20.4847 62.125 20.9445V22.5706V22.5706Z" fill="#272343"/>
<path d="M31.4631 11.6717L24.449 7.6637C23.9996 7.40683 23.4269 7.56308 23.1699 8.01258C22.913 8.4622 23.0691 9.03483 23.5187 9.2917L27.4677 11.5483H8.95361C8.43586 11.5483 8.01611 11.9681 8.01611 12.4858C8.01611 13.0036 8.43586 13.4232 8.95361 13.4232H27.4677L23.5187 15.6798C23.0692 15.9367 22.913 16.5093 23.1699 16.959C23.3429 17.2617 23.6592 17.4315 23.9847 17.4315C24.1425 17.4315 24.3024 17.3916 24.449 17.3077L31.4631 13.2997C31.7551 13.1328 31.9355 12.8222 31.9355 12.4857C31.9355 12.1492 31.7552 11.8387 31.4631 11.6717Z" fill="#272343"/>
</svg>
