<svg width="208" height="232" viewBox="0 0 208 232" fill="none" xmlns="http://www.w3.org/2000/svg">
<g clip-path="url(#clip0_102_459)">
<path d="M63.3267 78L32.7466 168.101C31.4581 171.89 31.8445 175.881 33.8504 179.5C35.8562 183.118 39.3783 186.179 43.9112 188.243C55.5761 193.548 74.861 199.29 104.351 199.949C135.611 200.647 156.405 194.08 168.702 188.119C173.048 186.011 176.395 182.971 178.284 179.416C180.173 175.861 180.512 171.966 179.254 168.265L148.617 78" fill="#F4F4F4"/>
<path d="M105.593 86.7493C141.82 86.7493 171.187 76.7565 171.187 64.4299C171.187 52.1032 141.82 42.1104 105.593 42.1104C69.3672 42.1104 40.0001 52.1032 40.0001 64.4299C40.0001 76.7565 69.3672 86.7493 105.593 86.7493Z" fill="#757575"/>
<path d="M105.594 87.1197C88.0338 87.1197 71.5202 84.7913 59.0947 80.562C46.5446 76.2916 39.6328 70.5621 39.6328 64.4289C39.6328 58.2957 46.544 52.5662 59.0947 48.2958C71.5202 44.0678 88.0338 41.7381 105.594 41.7381C123.153 41.7381 139.667 44.0669 152.092 48.2958C164.642 52.5662 171.554 58.2957 171.554 64.4289C171.554 70.5621 164.643 76.2916 152.092 80.562C139.667 84.7913 123.153 87.1197 105.594 87.1197ZM105.594 42.4809C88.1115 42.4809 71.6813 44.7956 59.329 48.9986C47.1013 53.1593 40.367 58.6396 40.367 64.4299C40.367 70.2201 47.1013 75.7004 59.329 79.8612C71.6813 84.0642 88.1118 86.3789 105.594 86.3789C123.075 86.3789 139.506 84.0642 151.858 79.8612C164.086 75.7004 170.82 70.2201 170.82 64.4299C170.82 58.6396 164.086 53.1593 151.858 48.9986C139.506 44.7956 123.075 42.4809 105.594 42.4809Z" fill="#757575"/>
<path d="M105.594 78.2467C153.19 78.2467 191.775 67.5362 191.775 54.324C191.775 41.1119 153.19 30.4013 105.594 30.4013C57.9971 30.4013 19.4125 41.1119 19.4125 54.324C19.4125 67.5362 57.9971 78.2467 105.594 78.2467Z" fill="black"/>
<path d="M105.593 78.6171C82.5416 78.6171 60.8649 76.1239 44.5567 71.5969C28.1053 67.0302 19.045 60.8961 19.045 54.3231C19.045 47.75 28.1053 41.6169 44.5567 37.0492C60.8649 32.5222 82.5416 30.0293 105.593 30.0293C128.645 30.0293 150.322 32.5222 166.63 37.0492C183.081 41.6159 192.142 47.7504 192.142 54.3231C192.142 60.8958 183.081 67.0293 166.63 71.5969C150.322 76.1239 128.645 78.6171 105.593 78.6171ZM105.593 30.7718C82.6056 30.7718 60.998 33.2557 44.7514 37.7654C36.873 39.9522 30.6938 42.4949 26.3848 45.3227C22.0016 48.1995 19.7792 51.2278 19.7792 54.324C19.7792 57.4202 22.0016 60.4489 26.3848 63.3253C30.6938 66.1531 36.873 68.6959 44.7514 70.8829C60.998 75.3933 82.6043 77.8763 105.593 77.8763C128.583 77.8763 150.189 75.3927 166.435 70.8829C174.314 68.6959 180.493 66.1531 184.802 63.3253C189.185 60.4489 191.407 57.4202 191.407 54.324C191.407 51.2278 189.185 48.1995 184.802 45.3227C180.493 42.4949 174.314 39.9522 166.435 37.7654C150.189 33.2557 128.581 30.773 105.593 30.773V30.7718Z" fill="#757575"/>
<path d="M145.247 40.3812C145.247 50.9569 127.081 53.4482 108.138 53.9008C87.4993 54.3938 65.9415 50.795 65.9415 40.3812C65.9712 29.7892 70.162 19.6413 77.5952 12.1622C85.0284 4.68317 95.0974 0.483246 105.595 0.483246C116.092 0.483246 126.161 4.68317 133.594 12.1622C141.027 19.6413 145.218 29.7892 145.248 40.3812H145.247Z" fill="white"/>
<path d="M140.1 38.2875C140.005 38.2874 139.913 38.25 139.845 38.183C139.776 38.116 139.736 38.0247 139.733 37.9286C139.622 34.1323 138.878 30.382 137.534 26.8346C137.499 26.7428 137.502 26.6409 137.542 26.5512C137.581 26.4615 137.655 26.3913 137.746 26.3562C137.837 26.3211 137.938 26.3238 138.026 26.3639C138.115 26.4039 138.185 26.478 138.22 26.5697C139.593 30.1946 140.353 34.0268 140.467 37.9059C140.47 38.004 140.434 38.0993 140.368 38.1709C140.301 38.2425 140.209 38.2844 140.112 38.2875H140.1Z" fill="#757575"/>
<path d="M134.617 20.625C134.556 20.6251 134.495 20.6097 134.442 20.5804C134.388 20.551 134.342 20.5085 134.309 20.4567C129.465 12.9951 121.925 7.7365 113.295 5.80079C113.202 5.77764 113.122 5.71887 113.071 5.63698C113.021 5.5551 113.004 5.45656 113.024 5.36232C113.045 5.26807 113.101 5.18556 113.18 5.13232C113.26 5.07907 113.357 5.0593 113.451 5.07721C122.269 7.05484 129.973 12.4279 134.924 20.052C134.96 20.1079 134.98 20.1726 134.983 20.2392C134.986 20.3058 134.971 20.372 134.939 20.4307C134.908 20.4893 134.861 20.5384 134.804 20.5726C134.748 20.6068 134.683 20.6249 134.617 20.625V20.625Z" fill="#757575"/>
<path d="M104.293 54.3167C86.7613 54.3167 73.4145 51.3417 68.1851 46.1916C66.452 44.484 65.5735 42.5289 65.5735 40.3808C65.5587 35.0684 66.5829 29.8051 68.5874 24.8928C70.592 19.9804 73.5375 15.5154 77.2551 11.7536C80.9728 7.99181 85.3896 5.00719 90.2524 2.97073C95.1152 0.934276 100.328 -0.113983 105.593 -0.113983C110.858 -0.113983 116.072 0.934276 120.934 2.97073C125.797 5.00719 130.214 7.99181 133.932 11.7536C137.649 15.5154 140.595 19.9804 142.599 24.8928C144.604 29.8051 145.628 35.0684 145.613 40.3808C145.613 45.3694 141.672 49.0408 133.897 51.2928C127.915 53.0256 119.492 53.9997 108.146 54.2706C106.841 54.3013 105.557 54.3167 104.293 54.3167ZM105.593 0.739888C95.177 0.751741 85.1912 4.93191 77.8262 12.3633C70.4612 19.7948 66.3183 29.8705 66.3064 40.3802C66.3064 42.3213 67.1107 44.0979 68.6971 45.6609C74.1633 51.0474 88.9025 53.9881 108.128 53.5301C123.905 53.1536 144.881 51.3801 144.881 40.3811C144.869 29.8712 140.726 19.7952 133.361 12.3637C125.996 4.93227 116.01 0.752278 105.594 0.740848L105.593 0.739888Z" fill="#757575"/>
<path d="M41.425 57.5261C44.2688 57.5261 46.5742 55.1999 46.5742 52.3305C46.5742 49.461 44.2688 47.1349 41.425 47.1349C38.5812 47.1349 36.2759 49.461 36.2759 52.3305C36.2759 55.1999 38.5812 57.5261 41.425 57.5261Z" fill="white"/>
<path d="M41.4251 57.8965C40.3341 57.8965 39.2676 57.5701 38.3605 56.9585C37.4533 56.3469 36.7463 55.4776 36.3288 54.4605C35.9113 53.4435 35.802 52.3243 36.0149 51.2446C36.2277 50.1649 36.7531 49.1731 37.5246 48.3947C38.296 47.6163 39.2789 47.0862 40.349 46.8714C41.419 46.6567 42.5282 46.7669 43.5361 47.1882C44.5441 47.6094 45.4056 48.3228 46.0117 49.2382C46.6179 50.1535 46.9414 51.2296 46.9414 52.3305C46.9397 53.8062 46.358 55.2209 45.3239 56.2644C44.2897 57.3079 42.8876 57.8948 41.4251 57.8965ZM41.4251 47.505C40.4793 47.505 39.5547 47.788 38.7682 48.3182C37.9818 48.8485 37.3688 49.6021 37.0068 50.4839C36.6449 51.3656 36.5502 52.3358 36.7347 53.2719C36.9192 54.2079 37.3747 55.0678 38.0435 55.7426C38.7123 56.4175 39.5645 56.8771 40.4921 57.0632C41.4198 57.2494 42.3814 57.1539 43.2553 56.7887C44.1291 56.4234 44.876 55.8049 45.4015 55.0114C45.927 54.2178 46.2075 53.2849 46.2075 52.3305C46.2062 51.0511 45.702 49.8244 44.8054 48.9198C43.9088 48.0151 42.6931 47.5063 41.4251 47.505V47.505Z" fill="#757575"/>
<path d="M105.594 72.4056C108.437 72.4056 110.743 70.0794 110.743 67.21C110.743 64.3406 108.437 62.0144 105.594 62.0144C102.75 62.0144 100.444 64.3406 100.444 67.21C100.444 70.0794 102.75 72.4056 105.594 72.4056Z" fill="white"/>
<path d="M105.594 72.776C104.502 72.776 103.436 72.4496 102.529 71.838C101.622 71.2264 100.915 70.3571 100.497 69.34C100.08 68.323 99.9704 67.2038 100.183 66.1241C100.396 65.0444 100.921 64.0527 101.693 63.2742C102.464 62.4958 103.447 61.9657 104.517 61.7509C105.587 61.5362 106.697 61.6464 107.704 62.0677C108.712 62.489 109.574 63.2024 110.18 64.1177C110.786 65.033 111.11 66.1092 111.11 67.21C111.108 68.6857 110.526 70.1004 109.492 71.1439C108.458 72.1874 107.056 72.7743 105.594 72.776V72.776ZM105.594 62.3848C104.648 62.3848 103.723 62.6678 102.937 63.198C102.15 63.7282 101.537 64.4818 101.175 65.3635C100.814 66.2452 100.719 67.2154 100.903 68.1513C101.088 69.0873 101.543 69.9471 102.212 70.6219C102.881 71.2967 103.733 71.7563 104.661 71.9425C105.588 72.1286 106.55 72.0331 107.424 71.6679C108.297 71.3027 109.044 70.6842 109.57 69.8907C110.095 69.0972 110.376 68.1643 110.376 67.21C110.374 65.9307 109.87 64.7042 108.973 63.7996C108.077 62.895 106.861 62.3862 105.594 62.3848V62.3848Z" fill="#757575"/>
<path d="M169.751 57.5261C172.594 57.5261 174.9 55.1999 174.9 52.3305C174.9 49.461 172.594 47.1349 169.751 47.1349C166.907 47.1349 164.601 49.461 164.601 52.3305C164.601 55.1999 166.907 57.5261 169.751 57.5261Z" fill="white"/>
<path d="M169.75 57.8965C168.659 57.8965 167.593 57.5701 166.686 56.9585C165.779 56.3469 165.072 55.4776 164.654 54.4605C164.237 53.4435 164.127 52.3243 164.34 51.2446C164.553 50.1649 165.078 49.1731 165.85 48.3947C166.621 47.6163 167.604 47.0862 168.674 46.8714C169.744 46.6567 170.853 46.7669 171.861 47.1882C172.869 47.6094 173.731 48.3228 174.337 49.2382C174.943 50.1535 175.267 51.2296 175.267 52.3305C175.265 53.8062 174.683 55.2209 173.649 56.2644C172.615 57.3079 171.213 57.8948 169.75 57.8965V57.8965ZM169.75 47.505C168.805 47.505 167.88 47.788 167.094 48.3182C166.307 48.8485 165.694 49.6021 165.332 50.4839C164.97 51.3656 164.876 52.3358 165.06 53.2719C165.245 54.2079 165.7 55.0678 166.369 55.7426C167.038 56.4175 167.89 56.8771 168.817 57.0632C169.745 57.2494 170.707 57.1539 171.581 56.7887C172.454 56.4234 173.201 55.8049 173.727 55.0114C174.252 54.2178 174.533 53.2849 174.533 52.3305C174.532 51.0511 174.027 49.8244 173.131 48.9198C172.234 48.0151 171.018 47.5063 169.75 47.505V47.505Z" fill="#757575"/>
<path d="M142.386 67.21C145.23 67.21 147.535 64.8838 147.535 62.0144C147.535 59.1449 145.23 56.8188 142.386 56.8188C139.542 56.8188 137.237 59.1449 137.237 62.0144C137.237 64.8838 139.542 67.21 142.386 67.21Z" fill="white"/>
<path d="M142.386 67.5804C141.295 67.5804 140.228 67.254 139.321 66.6424C138.414 66.0308 137.707 65.1615 137.289 64.1444C136.872 63.1274 136.763 62.0082 136.976 60.9285C137.188 59.8488 137.714 58.857 138.485 58.0786C139.257 57.3002 140.24 56.7701 141.31 56.5553C142.38 56.3406 143.489 56.4508 144.497 56.8721C145.505 57.2933 146.366 58.0067 146.972 58.9221C147.579 59.8374 147.902 60.9135 147.902 62.0144C147.9 63.4901 147.319 64.9048 146.285 65.9483C145.25 66.9917 143.848 67.5787 142.386 67.5804ZM142.386 57.1889C141.44 57.1888 140.515 57.4718 139.729 58.002C138.942 58.5322 138.329 59.2858 137.967 60.1675C137.605 61.0493 137.511 62.0195 137.695 62.9556C137.88 63.8917 138.335 64.7515 139.004 65.4264C139.673 66.1013 140.525 66.5609 141.452 66.7471C142.38 66.9333 143.342 66.8378 144.216 66.4726C145.089 66.1074 145.836 65.4889 146.362 64.6953C146.887 63.9018 147.168 62.9688 147.168 62.0144C147.167 60.735 146.662 59.5084 145.766 58.6038C144.869 57.6991 143.654 57.1903 142.386 57.1889V57.1889Z" fill="#757575"/>
<path d="M68.801 67.9173C71.6448 67.9173 73.9502 65.5911 73.9502 62.7217C73.9502 59.8522 71.6448 57.5261 68.801 57.5261C65.9572 57.5261 63.6519 59.8522 63.6519 62.7217C63.6519 65.5911 65.9572 67.9173 68.801 67.9173Z" fill="white"/>
<path d="M68.8011 68.288C67.71 68.288 66.6435 67.9616 65.7364 67.35C64.8292 66.7384 64.1222 65.8691 63.7047 64.852C63.2872 63.835 63.1779 62.7158 63.3908 61.6361C63.6036 60.5564 64.129 59.5646 64.9005 58.7862C65.6719 58.0078 66.6548 57.4777 67.7249 57.2629C68.7949 57.0482 69.9041 57.1584 70.912 57.5797C71.92 58.0009 72.7815 58.7144 73.3877 59.6297C73.9938 60.545 74.3173 61.6211 74.3173 62.722C74.3156 64.1977 73.7339 65.6124 72.6998 66.6559C71.6656 67.6994 70.2635 68.2863 68.8011 68.288V68.288ZM68.8011 57.8965C67.8551 57.8962 66.9303 58.1789 66.1437 58.709C65.357 59.2391 64.7438 59.9926 64.3816 60.8743C64.0194 61.7561 63.9245 62.7264 64.1088 63.6625C64.2932 64.5987 64.7486 65.4587 65.4174 66.1337C66.0862 66.8087 66.9383 67.2684 67.8661 67.4547C68.7938 67.641 69.7555 67.5455 70.6294 67.1802C71.5034 66.815 72.2504 66.1965 72.7759 65.4028C73.3014 64.6092 73.5819 63.6761 73.5818 62.7217C73.5805 61.4426 73.0764 60.2163 72.1802 59.3117C71.2839 58.4072 70.0687 57.8982 68.8011 57.8965V57.8965Z" fill="#757575"/>
<path d="M160.193 35.8144C159.81 36.9872 159.025 37.9837 157.979 38.6254C156.933 39.2671 155.695 39.5119 154.486 39.316C153.278 39.1202 152.178 38.4964 151.384 37.5566C150.59 36.6167 150.153 35.4222 150.153 34.1872C150.153 34.0711 150.158 33.9575 150.165 33.8439C153.682 34.4367 157.032 35.0934 160.193 35.8144Z" fill="white"/>
<path d="M155.302 39.7526C153.839 39.7511 152.437 39.1642 151.403 38.1207C150.369 37.0772 149.787 35.6623 149.785 34.1865C149.785 34.0624 149.791 33.9405 149.798 33.819L149.825 33.4105L150.225 33.478C153.761 34.0739 157.142 34.7383 160.275 35.4523L160.669 35.5425L160.543 35.9299C160.18 37.0432 159.478 38.0124 158.537 38.6989C157.595 39.3854 156.463 39.7542 155.302 39.7526ZM150.521 34.2796C150.542 35.3834 150.938 36.4464 151.642 37.2914C152.346 38.1365 153.316 38.7125 154.389 38.9233C155.463 39.1342 156.577 38.9672 157.543 38.4502C158.51 37.9331 159.272 37.0973 159.701 36.0822C156.823 35.4344 153.739 34.8289 150.521 34.2796Z" fill="#757575"/>
<path d="M60.4804 34.1872C60.4801 35.4118 60.0512 36.5969 59.2694 37.5335C58.4875 38.4701 57.403 39.0981 56.2071 39.3065C55.0111 39.515 53.7807 39.2906 52.7327 38.673C51.6848 38.0553 50.8867 37.0841 50.4792 35.9306C53.6285 35.2044 56.9665 34.5378 60.4731 33.9377C60.4779 34.0193 60.4804 34.1031 60.4804 34.1872Z" fill="white"/>
<path d="M55.3318 39.7526C54.1935 39.7509 53.0833 39.395 52.1529 38.7332C51.2224 38.0715 50.5169 37.1362 50.1326 36.055L49.9938 35.6622L50.3967 35.5694C53.5616 34.8398 56.9309 34.168 60.4109 33.5727L60.8142 33.5036L60.8389 33.9153C60.8443 34.0042 60.8468 34.0957 60.8468 34.1872C60.8452 35.6626 60.2636 37.0771 59.2297 38.1204C58.1958 39.1637 56.7941 39.7507 55.3318 39.7526V39.7526ZM50.9819 36.1951C51.4296 37.1817 52.1937 37.9873 53.1509 38.4819C54.1081 38.9764 55.2026 39.131 56.2576 38.9208C57.3126 38.7105 58.2666 38.1476 58.9656 37.323C59.6646 36.4984 60.0678 35.4602 60.1101 34.3759C56.9474 34.9242 53.8811 35.5352 50.9819 36.1951Z" fill="#757575"/>
<path d="M111.074 106.052C112.695 107.236 114.103 108.624 115.299 110.219L115.454 110.325C115.525 110.447 115.567 110.557 115.586 110.643C116.04 111.228 116.448 111.815 116.778 112.466L117.475 113.599C117.727 114.08 117.935 114.798 118.09 115.139C118.248 115.475 118.429 115.834 118.543 116.178C122.969 115.932 127.331 117.143 130.966 119.669C132.624 120.804 134.121 122.173 135.338 123.782C142.907 133.594 139.212 146.694 130.009 154.054C125.142 157.704 119.505 160.216 113.565 161.356C105.172 162.826 96.6567 163.403 88.1244 163.081L87.1994 163.03L86.802 162.137C83.3079 154.265 80.6549 146.044 78.8708 137.567C77.7444 131.59 77.9482 125.397 79.4777 119.464C82.7925 108.072 93.4767 99.7568 105.448 103.24C106.388 103.497 107.298 103.85 108.155 104.287L108.471 104.502C109.282 104.9 110.049 105.351 110.785 105.854L111.074 106.052ZM128.877 130.434C128.05 129.324 126.475 129.099 125.335 129.939C124.222 130.798 123.983 132.41 124.823 133.559C126.081 135.347 126.088 137.787 124.847 139.635L124.792 139.717C124.336 140.288 124.125 140.996 124.191 141.698C124.257 142.399 124.633 143.038 125.174 143.49C126.271 144.198 127.774 143.958 128.601 142.899L128.812 142.584C131.378 138.934 131.399 134.052 128.877 130.434Z" fill="black"/>
<path d="M3.74641 81.9603C3.69822 81.9603 3.6505 81.9507 3.60597 81.9321C3.56145 81.9134 3.521 81.8861 3.48694 81.8517C3.45287 81.8173 3.42586 81.7765 3.40744 81.7316C3.38903 81.6866 3.37957 81.6385 3.37961 81.5898V71.1395C3.37817 71.0899 3.38659 71.0406 3.40439 70.9944C3.42218 70.9482 3.44898 70.9061 3.4832 70.8705C3.51741 70.835 3.55835 70.8067 3.60359 70.7874C3.64883 70.7681 3.69745 70.7581 3.74657 70.7581C3.79569 70.7581 3.84431 70.7681 3.88955 70.7874C3.93479 70.8067 3.97573 70.835 4.00995 70.8705C4.04417 70.9061 4.07097 70.9482 4.08876 70.9944C4.10655 71.0406 4.11497 71.0899 4.11353 71.1395V81.5898C4.11357 81.6385 4.1041 81.6867 4.08567 81.7316C4.06724 81.7766 4.0402 81.8174 4.0061 81.8519C3.972 81.8863 3.93151 81.9135 3.88695 81.9321C3.84239 81.9507 3.79464 81.9603 3.74641 81.9603Z" fill="#262626"/>
<path d="M7.12589 76.7352H0.367208C0.269843 76.7352 0.176465 76.6962 0.107617 76.6267C0.0387698 76.5573 9.15527e-05 76.4631 9.15527e-05 76.3648C9.15527e-05 76.2666 0.0387698 76.1724 0.107617 76.1029C0.176465 76.0334 0.269843 75.9944 0.367208 75.9944H7.12589C7.22326 75.9944 7.31663 76.0334 7.38548 76.1029C7.45433 76.1724 7.49301 76.2666 7.49301 76.3648C7.49301 76.4631 7.45433 76.5573 7.38548 76.6267C7.31663 76.6962 7.22326 76.7352 7.12589 76.7352V76.7352Z" fill="#262626"/>
<path d="M22.7678 192.246C22.7196 192.246 22.6719 192.237 22.6273 192.218C22.5828 192.199 22.5424 192.172 22.5083 192.138C22.4742 192.103 22.4472 192.063 22.4288 192.018C22.4104 191.973 22.4009 191.924 22.401 191.876V181.426C22.3995 181.376 22.408 181.327 22.4258 181.28C22.4436 181.234 22.4704 181.192 22.5046 181.157C22.5388 181.121 22.5797 181.093 22.625 181.073C22.6702 181.054 22.7188 181.044 22.7679 181.044C22.8171 181.044 22.8657 181.054 22.9109 181.073C22.9562 181.093 22.9971 181.121 23.0313 181.157C23.0655 181.192 23.0923 181.234 23.1101 181.28C23.1279 181.327 23.1364 181.376 23.1349 181.426V191.876C23.1349 191.925 23.1255 191.973 23.107 192.018C23.0886 192.063 23.0616 192.103 23.0275 192.138C22.9934 192.172 22.9529 192.2 22.9083 192.218C22.8638 192.237 22.816 192.246 22.7678 192.246Z" fill="#262626"/>
<path d="M26.1473 187.021H19.3886C19.2912 187.021 19.1978 186.982 19.129 186.913C19.0601 186.843 19.0215 186.749 19.0215 186.651C19.0215 186.553 19.0601 186.458 19.129 186.389C19.1978 186.319 19.2912 186.28 19.3886 186.28H26.1473C26.2446 186.28 26.338 186.319 26.4069 186.389C26.4757 186.458 26.5144 186.553 26.5144 186.651C26.5144 186.749 26.4757 186.843 26.4069 186.913C26.338 186.982 26.2446 187.021 26.1473 187.021V187.021Z" fill="#262626"/>
<path d="M180.039 108.165C179.942 108.165 179.849 108.125 179.78 108.056C179.711 107.987 179.672 107.892 179.672 107.794V91.8976C179.672 91.7994 179.711 91.7052 179.78 91.6357C179.849 91.5662 179.942 91.5272 180.039 91.5272C180.137 91.5272 180.23 91.5662 180.299 91.6357C180.368 91.7052 180.406 91.7994 180.406 91.8976V107.794C180.406 107.892 180.368 107.986 180.299 108.056C180.23 108.125 180.137 108.164 180.039 108.165Z" fill="#262626"/>
<path d="M185.181 100.216H174.9C174.802 100.216 174.709 100.177 174.64 100.108C174.571 100.038 174.533 99.9441 174.533 99.8459C174.533 99.7476 174.571 99.6534 174.64 99.5839C174.709 99.5145 174.802 99.4754 174.9 99.4754H185.181C185.278 99.4754 185.372 99.5145 185.44 99.5839C185.509 99.6534 185.548 99.7476 185.548 99.8459C185.548 99.9441 185.509 100.038 185.44 100.108C185.372 100.177 185.278 100.216 185.181 100.216V100.216Z" fill="#262626"/>
<path d="M52.1098 154.497C52.0124 154.497 51.919 154.458 51.8502 154.388C51.7813 154.319 51.7426 154.225 51.7426 154.126V138.23C51.7426 138.132 51.7813 138.038 51.8502 137.968C51.919 137.899 52.0124 137.86 52.1098 137.86C52.2071 137.86 52.3005 137.899 52.3693 137.968C52.4382 138.038 52.4769 138.132 52.4769 138.23V154.126C52.4768 154.225 52.4381 154.319 52.3693 154.388C52.3004 154.458 52.2071 154.497 52.1098 154.497Z" fill="#262626"/>
<path d="M57.2512 146.549H46.9701C46.8727 146.549 46.7793 146.51 46.7105 146.44C46.6416 146.371 46.603 146.276 46.603 146.178C46.603 146.08 46.6416 145.986 46.7105 145.916C46.7793 145.847 46.8727 145.808 46.9701 145.808H57.2512C57.3486 145.808 57.442 145.847 57.5108 145.916C57.5797 145.986 57.6183 146.08 57.6183 146.178C57.6183 146.276 57.5797 146.371 57.5108 146.44C57.442 146.51 57.3486 146.549 57.2512 146.549V146.549Z" fill="#262626"/>
<path d="M158.947 181.047C158.85 181.047 158.757 181.008 158.688 180.939C158.619 180.869 158.58 180.775 158.58 180.677V164.781C158.58 164.682 158.619 164.588 158.688 164.519C158.757 164.449 158.85 164.41 158.947 164.41C159.045 164.41 159.138 164.449 159.207 164.519C159.276 164.588 159.314 164.682 159.314 164.781V180.677C159.314 180.775 159.276 180.869 159.207 180.939C159.138 181.008 159.045 181.047 158.947 181.047Z" fill="#262626"/>
<path d="M164.089 173.099H153.808C153.71 173.099 153.617 173.06 153.548 172.991C153.479 172.921 153.441 172.827 153.441 172.729C153.441 172.63 153.479 172.536 153.548 172.467C153.617 172.397 153.71 172.358 153.808 172.358H164.089C164.186 172.358 164.28 172.397 164.349 172.467C164.417 172.536 164.456 172.63 164.456 172.729C164.456 172.827 164.417 172.921 164.349 172.991C164.28 173.06 164.186 173.099 164.089 173.099V173.099Z" fill="#262626"/>
<path d="M205.063 89.9085C205.014 89.9085 204.967 89.899 204.922 89.8804C204.878 89.8618 204.837 89.8345 204.803 89.8001C204.769 89.7657 204.742 89.7248 204.723 89.6799C204.705 89.6349 204.696 89.5867 204.696 89.5381V81.5899C204.696 81.4916 204.734 81.3974 204.803 81.3279C204.872 81.2584 204.965 81.2194 205.063 81.2194C205.16 81.2194 205.253 81.2584 205.322 81.3279C205.391 81.3974 205.43 81.4916 205.43 81.5899V89.5381C205.43 89.5867 205.42 89.6349 205.402 89.6799C205.384 89.7248 205.357 89.7657 205.322 89.8001C205.288 89.8345 205.248 89.8618 205.203 89.8804C205.159 89.899 205.111 89.9085 205.063 89.9085Z" fill="#262626"/>
<path d="M207.633 85.9345H202.493C202.444 85.9345 202.397 85.925 202.352 85.9064C202.308 85.8877 202.267 85.8604 202.233 85.826C202.199 85.7917 202.172 85.7508 202.153 85.7059C202.135 85.6609 202.126 85.6128 202.126 85.5641C202.126 85.5155 202.135 85.4673 202.153 85.4224C202.172 85.3774 202.199 85.3366 202.233 85.3022C202.267 85.2678 202.308 85.2405 202.352 85.2219C202.397 85.2033 202.444 85.1937 202.493 85.1937H207.633C207.731 85.1937 207.824 85.2327 207.893 85.3022C207.962 85.3717 208 85.4659 208 85.5641C208 85.6624 207.962 85.7566 207.893 85.826C207.824 85.8955 207.731 85.9345 207.633 85.9345Z" fill="#262626"/>
</g>
<defs>
<clipPath id="clip0_102_459">
<rect width="208" height="232" fill="white"/>
</clipPath>
</defs>
</svg>
