<svg width="250" height="34" viewBox="0 0 250 34" fill="none" xmlns="http://www.w3.org/2000/svg">
<path d="M0.353554 17.5L7.5 10.3536L14.6464 17.5L7.5 24.6464L0.353554 17.5Z" stroke="white" stroke-width="0.5"/>
<path d="M0.353554 17.5L7.5 10.3536L14.6464 17.5L7.5 24.6464L0.353554 17.5Z" stroke="white" stroke-width="0.5"/>
<path d="M0.353554 17.5L7.5 10.3536L14.6464 17.5L7.5 24.6464L0.353554 17.5Z" stroke="white" stroke-width="0.5"/>
<path d="M16.3536 17.5L23.5 10.3536L30.6464 17.5L23.5 24.6464L16.3536 17.5Z" stroke="white" stroke-width="0.5"/>
<path d="M16.3536 17.5L23.5 10.3536L30.6464 17.5L23.5 24.6464L16.3536 17.5Z" stroke="white" stroke-width="0.5"/>
<path d="M16.3536 17.5L23.5 10.3536L30.6464 17.5L23.5 24.6464L16.3536 17.5Z" stroke="white" stroke-width="0.5"/>
<path d="M8.35355 17.5L15.5 10.3536L22.6464 17.5L15.5 24.6464L8.35355 17.5Z" stroke="white" stroke-width="0.5"/>
<path d="M8.35355 17.5L15.5 10.3536L22.6464 17.5L15.5 24.6464L8.35355 17.5Z" stroke="white" stroke-width="0.5"/>
<path d="M8.35355 17.5L15.5 10.3536L22.6464 17.5L15.5 24.6464L8.35355 17.5Z" stroke="white" stroke-width="0.5"/>
<path d="M219.354 17L226.5 9.85355L233.646 17L226.5 24.1464L219.354 17Z" stroke="white" stroke-width="0.5"/>
<path d="M219.354 17L226.5 9.85355L233.646 17L226.5 24.1464L219.354 17Z" stroke="white" stroke-width="0.5"/>
<path d="M219.354 17L226.5 9.85355L233.646 17L226.5 24.1464L219.354 17Z" stroke="white" stroke-width="0.5"/>
<path d="M235.354 17L242.5 9.85355L249.646 17L242.5 24.1464L235.354 17Z" stroke="white" stroke-width="0.5"/>
<path d="M235.354 17L242.5 9.85355L249.646 17L242.5 24.1464L235.354 17Z" stroke="white" stroke-width="0.5"/>
<path d="M235.354 17L242.5 9.85355L249.646 17L242.5 24.1464L235.354 17Z" stroke="white" stroke-width="0.5"/>
<path d="M227.354 17L234.5 9.85355L241.646 17L234.5 24.1464L227.354 17Z" stroke="white" stroke-width="0.5"/>
<path d="M227.354 17L234.5 9.85355L241.646 17L234.5 24.1464L227.354 17Z" stroke="white" stroke-width="0.5"/>
<path d="M227.354 17L234.5 9.85355L241.646 17L234.5 24.1464L227.354 17Z" stroke="white" stroke-width="0.5"/>
<path d="M52.714 27V20.434H54.03L55.01 24.648L53.904 27H52.714ZM53.19 11.054C53.19 9.542 53.6847 8.27733 54.674 7.26C55.6727 6.24267 57.0727 5.734 58.874 5.734C59.966 5.734 60.974 5.89267 61.898 6.21C62.822 6.518 63.634 6.98 64.334 7.596L63.284 8.968C62.8173 8.51067 62.2293 8.114 61.52 7.778C60.8107 7.43267 59.9427 7.26 58.916 7.26C57.7307 7.26 56.83 7.54 56.214 8.1C55.598 8.66 55.29 9.40667 55.29 10.34C55.29 11.264 55.6633 12.0527 56.41 12.706C57.1567 13.35 58.4587 14.0313 60.316 14.75C61.9587 15.394 63.354 16.22 64.502 17.228C65.6593 18.2267 66.238 19.5707 66.238 21.26C66.238 22.996 65.6593 24.438 64.502 25.586C63.354 26.734 61.8607 27.308 60.022 27.308C58.37 27.308 57.0213 26.9907 55.976 26.356C54.94 25.712 54.0113 24.7833 53.19 23.57L54.632 22.926C54.8933 23.766 55.5327 24.4707 56.55 25.04C57.5673 25.6 58.7573 25.88 60.12 25.88C61.324 25.88 62.29 25.5207 63.018 24.802C63.746 24.074 64.11 23.164 64.11 22.072C64.11 20.7467 63.634 19.7153 62.682 18.978C61.7393 18.2313 60.3627 17.536 58.552 16.892C56.62 16.2013 55.2433 15.4313 54.422 14.582C53.6007 13.7233 53.19 12.5473 53.19 11.054ZM62.724 8.576L63.662 6.182H64.852V12.09H63.55L62.724 8.576ZM67.9237 27V26.076L69.8137 25.586L69.8417 19.79L69.8137 7.498L67.6017 7.078V6L71.4657 5.524H71.8577L72.1937 5.972L72.1657 19.79L72.1937 25.586L74.0277 26.076V27H67.9237ZM72.1237 16.78L71.7177 15.968C72.119 15.0907 72.7957 14.3533 73.7477 13.756C74.6997 13.1587 75.7264 12.86 76.8277 12.86C78.2184 12.86 79.259 13.196 79.9497 13.868C80.6497 14.54 80.9997 15.4547 80.9997 16.612C80.9997 17.2747 80.9857 17.97 80.9577 18.698C80.939 19.426 80.9297 19.79 80.9297 19.79L80.9997 25.586L82.9737 26.076V27H76.5337V26.076L78.6197 25.586L78.6477 19.79V17.116C78.6477 16.4347 78.4237 15.8513 77.9757 15.366C77.5277 14.8713 76.879 14.624 76.0297 14.624C75.311 14.624 74.5924 14.806 73.8737 15.17C73.155 15.5247 72.5717 16.0613 72.1237 16.78ZM84.6681 20.084C84.6681 18.0493 85.3121 16.3367 86.6001 14.946C87.8881 13.5553 89.5681 12.86 91.6401 12.86C93.7215 12.86 95.4108 13.5133 96.7081 14.82C98.0148 16.1173 98.6681 17.844 98.6681 20C98.6681 22.0347 98.0288 23.7613 96.7501 25.18C95.4715 26.5987 93.7961 27.308 91.7241 27.308C89.6335 27.308 87.9348 26.65 86.6281 25.334C85.3215 24.0087 84.6681 22.2587 84.6681 20.084ZM87.1881 19.804C87.1975 21.6613 87.6035 23.1687 88.4061 24.326C89.2181 25.474 90.2868 26.048 91.6121 26.048C93.0401 26.048 94.1368 25.53 94.9021 24.494C95.6768 23.4487 96.0641 21.9553 96.0641 20.014C96.0641 18.222 95.6581 16.8033 94.8461 15.758C94.0435 14.7127 92.9748 14.19 91.6401 14.19C90.2028 14.19 89.0968 14.666 88.3221 15.618C87.5568 16.57 87.1788 17.9653 87.1881 19.804ZM100.294 33.65V32.726L102.212 32.236L102.24 21.106L102.212 15.156L100.238 14.708V13.63L103.864 13.154L104.284 13.476L104.578 15.03L104.564 21.106L104.592 32.236L106.622 32.726V33.65H100.294ZM104.018 25.152L104.494 23.906C104.774 24.4753 105.245 24.9653 105.908 25.376C106.58 25.7773 107.369 25.978 108.274 25.978C109.469 25.978 110.407 25.474 111.088 24.466C111.779 23.458 112.124 21.9693 112.124 20C112.124 18.1427 111.783 16.7427 111.102 15.8C110.421 14.8573 109.497 14.386 108.33 14.386C107.406 14.386 106.617 14.6007 105.964 15.03C105.32 15.4593 104.825 15.9773 104.48 16.584L104.074 15.94C104.438 15.0813 105.035 14.358 105.866 13.77C106.697 13.1727 107.775 12.8787 109.1 12.888C110.715 12.8787 112.049 13.4807 113.104 14.694C114.168 15.898 114.7 17.5593 114.7 19.678C114.7 21.9647 114.149 23.7847 113.048 25.138C111.947 26.4913 110.458 27.168 108.582 27.168C107.425 27.168 106.44 26.9533 105.628 26.524C104.825 26.0947 104.289 25.6373 104.018 25.152ZM116.652 16.668C116.652 13.5133 117.571 10.9 119.41 8.828C121.258 6.756 123.684 5.72 126.69 5.72C129.695 5.72 132.117 6.69533 133.956 8.646C135.794 10.5967 136.714 13.2053 136.714 16.472C136.714 19.58 135.804 22.184 133.984 24.284C132.164 26.3747 129.746 27.42 126.732 27.42C123.801 27.42 121.388 26.4307 119.494 24.452C117.599 22.4733 116.652 19.8787 116.652 16.668ZM119.326 16.178C119.326 19.1087 120.007 21.4653 121.37 23.248C122.732 25.0213 124.51 25.908 126.704 25.908C129.102 25.908 130.922 25.1147 132.164 23.528C133.414 21.932 134.04 19.6033 134.04 16.542C134.04 13.7887 133.372 11.5627 132.038 9.864C130.712 8.16533 128.934 7.316 126.704 7.316C124.314 7.316 122.485 8.086 121.216 9.626C119.956 11.1567 119.326 13.3407 119.326 16.178ZM138.744 27V26.076L140.718 25.586L140.746 19.65L140.718 15.156L138.744 14.708V13.63L142.37 13.154L142.804 13.476L143.098 15.114L143.07 19.65L143.098 25.586L144.932 26.076V27H138.744ZM143.028 16.794L142.622 15.982C143.014 15.1047 143.686 14.3673 144.638 13.77C145.59 13.1727 146.621 12.874 147.732 12.874C149.123 12.874 150.163 13.21 150.854 13.882C151.545 14.5447 151.89 15.4593 151.89 16.626C151.89 17.3073 151.876 18.0073 151.848 18.726C151.829 19.4353 151.82 19.79 151.82 19.79L151.89 25.586L153.864 26.076V27H147.424V26.076L149.51 25.586L149.538 19.636V17.13C149.538 16.3273 149.305 15.7113 148.838 15.282C148.371 14.8527 147.737 14.638 146.934 14.638C146.122 14.638 145.366 14.834 144.666 15.226C143.966 15.618 143.42 16.1407 143.028 16.794ZM155.724 27V26.076L157.88 25.586L157.908 19.622L157.88 7.498L155.402 7.078V6L159.532 5.524L159.98 5.552L160.26 5.986L160.232 19.622L160.26 25.586L162.36 26.076V27H155.724ZM164.256 27V26.076L166.482 25.586L166.51 19.79L166.412 15.156L164.172 14.708V13.63L168.008 13.14H168.554L168.932 13.686L168.834 19.79L168.862 25.586L170.962 26.076V27H164.256ZM165.894 8.394C165.894 7.862 166.039 7.45133 166.328 7.162C166.627 6.87267 167.052 6.728 167.602 6.728C168.116 6.728 168.526 6.882 168.834 7.19C169.152 7.498 169.31 7.89933 169.31 8.394C169.31 8.926 169.161 9.33667 168.862 9.626C168.573 9.91533 168.153 10.06 167.602 10.06C167.089 10.06 166.674 9.906 166.356 9.598C166.048 9.29 165.894 8.88867 165.894 8.394ZM172.814 27V26.076L174.788 25.586L174.816 19.65L174.788 15.156L172.814 14.708V13.63L176.44 13.154L176.874 13.476L177.168 15.114L177.14 19.65L177.168 25.586L179.002 26.076V27H172.814ZM177.098 16.794L176.692 15.982C177.084 15.1047 177.756 14.3673 178.708 13.77C179.66 13.1727 180.692 12.874 181.802 12.874C183.193 12.874 184.234 13.21 184.924 13.882C185.615 14.5447 185.96 15.4593 185.96 16.626C185.96 17.3073 185.946 18.0073 185.918 18.726C185.9 19.4353 185.89 19.79 185.89 19.79L185.96 25.586L187.934 26.076V27H181.494V26.076L183.58 25.586L183.608 19.636V17.13C183.608 16.3273 183.375 15.7113 182.908 15.282C182.442 14.8527 181.807 14.638 181.004 14.638C180.192 14.638 179.436 14.834 178.736 15.226C178.036 15.618 177.49 16.1407 177.098 16.794ZM189.641 20.084C189.641 18.04 190.233 16.3273 191.419 14.946C192.604 13.5553 194.158 12.86 196.081 12.86C197.835 12.86 199.207 13.4013 200.197 14.484C201.195 15.5573 201.783 17.0413 201.961 18.936H199.679C199.576 17.4893 199.203 16.332 198.559 15.464C197.924 14.596 197 14.162 195.787 14.162C194.695 14.162 193.813 14.652 193.141 15.632C192.478 16.6027 192.151 17.984 192.161 19.776C192.161 21.8107 192.599 23.3133 193.477 24.284C194.354 25.2547 195.502 25.74 196.921 25.74C197.845 25.74 198.61 25.6233 199.217 25.39C199.833 25.1567 200.369 24.8393 200.827 24.438L201.429 25.11C201.018 25.726 200.421 26.2487 199.637 26.678C198.853 27.098 197.868 27.308 196.683 27.308C194.601 27.308 192.907 26.65 191.601 25.334C190.294 24.018 189.641 22.268 189.641 20.084ZM191.699 19.636V18.516H201.233L201.961 18.922L201.975 19.636H191.699Z" fill="white"/>
</svg>
