<svg width="204" height="24" viewBox="0 0 204 24" fill="none" xmlns="http://www.w3.org/2000/svg">
<path d="M0.353554 12L7.5 4.85355L14.6464 12L7.5 19.1464L0.353554 12Z" stroke="#030812" stroke-width="0.5"/>
<path d="M17.3536 12L24.5 4.85355L31.6464 12L24.5 19.1464L17.3536 12Z" stroke="#030812" stroke-width="0.5"/>
<path d="M8.35355 12L15.5 4.85355L22.6464 12L15.5 19.1464L8.35355 12Z" stroke="#030812" stroke-width="0.5"/>
<path d="M47.51 19V14.22H48.58L49.23 17.3L48.48 19H47.51ZM47.88 7.64C47.88 6.55333 48.2433 5.64333 48.97 4.91C49.6967 4.17667 50.7167 3.81 52.03 3.81C52.8367 3.81 53.58 3.92333 54.26 4.15C54.94 4.37 55.54 4.69667 56.06 5.13L55.3 6.17C54.9467 5.86333 54.5067 5.6 53.98 5.38C53.46 5.15333 52.8233 5.04 52.07 5.04C51.19 5.04 50.53 5.23667 50.09 5.63C49.65 6.02333 49.43 6.54667 49.43 7.2C49.43 7.82667 49.6933 8.36667 50.22 8.82C50.7533 9.27333 51.7 9.74333 53.06 10.23C54.2667 10.6633 55.2933 11.24 56.14 11.96C56.9933 12.6733 57.42 13.64 57.42 14.86C57.42 16.1 56.9967 17.14 56.15 17.98C55.31 18.8133 54.2167 19.23 52.87 19.23C51.65 19.23 50.66 18.9967 49.9 18.53C49.14 18.0567 48.4567 17.3767 47.85 16.49L48.91 15.89C49.0967 16.5167 49.5667 17.04 50.32 17.46C51.08 17.8733 51.9567 18.08 52.95 18.08C53.8167 18.08 54.5167 17.8233 55.05 17.31C55.5833 16.7967 55.85 16.1533 55.85 15.38C55.85 14.4333 55.5033 13.7033 54.81 13.19C54.1233 12.67 53.1267 12.1933 51.82 11.76C50.4 11.2933 49.3867 10.7567 48.78 10.15C48.18 9.53667 47.88 8.7 47.88 7.64ZM54.84 5.84L55.47 4.13H56.42V8.43H55.37L54.84 5.84ZM58.658 19V18.26L60.048 17.91L60.068 13.78L60.048 5.17L58.418 4.87V4L61.178 3.66H61.488L61.748 3.98L61.728 13.78L61.748 17.91L63.098 18.26V19H58.658ZM61.698 11.76L61.378 11.1C61.6713 10.4533 62.1713 9.91333 62.878 9.48C63.5913 9.04667 64.348 8.83 65.148 8.83C66.1613 8.83 66.9213 9.07667 67.428 9.57C67.9346 10.0567 68.188 10.7233 68.188 11.57C68.188 12.0567 68.178 12.5467 68.158 13.04C68.1446 13.5333 68.138 13.78 68.138 13.78L68.188 17.91L69.638 18.26V19H64.948V18.26L66.488 17.91L66.508 13.78V11.96C66.508 11.5 66.3413 11.09 66.008 10.73C65.6813 10.37 65.208 10.19 64.588 10.19C64.0613 10.19 63.528 10.3233 62.988 10.59C62.4546 10.85 62.0246 11.24 61.698 11.76ZM70.9013 14.03C70.9013 12.5767 71.3713 11.3467 72.3113 10.34C73.2513 9.33333 74.4813 8.83 76.0013 8.83C77.5213 8.83 78.7546 9.3 79.7013 10.24C80.6546 11.18 81.1313 12.4233 81.1313 13.97C81.1313 15.41 80.6646 16.6467 79.7313 17.68C78.8046 18.7067 77.5813 19.22 76.0613 19.22C74.5346 19.22 73.2913 18.7433 72.3313 17.79C71.3779 16.8367 70.9013 15.5833 70.9013 14.03ZM72.7013 13.83C72.7079 15.0833 73.0079 16.1267 73.6013 16.96C74.2013 17.7867 74.9946 18.2 75.9813 18.2C77.0346 18.2 77.8446 17.8233 78.4113 17.07C78.9846 16.3167 79.2713 15.2833 79.2713 13.97C79.2713 12.7567 78.9713 11.7767 78.3713 11.03C77.7779 10.2767 76.9879 9.9 76.0013 9.9C74.9346 9.9 74.1146 10.2433 73.5413 10.93C72.9746 11.61 72.6946 12.5767 72.7013 13.83ZM82.3361 23.78V23.04L83.7461 22.69L83.7661 14.75L83.7461 10.56L82.2961 10.26V9.39L84.8761 9.05L85.2061 9.3L85.4361 10.35L85.4261 14.75L85.4461 22.69L86.9361 23.04V23.78H82.3361ZM85.0161 17.64L85.3861 16.65C85.5928 17.0633 85.9394 17.42 86.4261 17.72C86.9194 18.02 87.4994 18.17 88.1661 18.17C89.0528 18.17 89.7494 17.8033 90.2561 17.07C90.7628 16.3367 91.0161 15.3033 91.0161 13.97C91.0161 12.7033 90.7628 11.73 90.2561 11.05C89.7561 10.37 89.0761 10.03 88.2161 10.03C87.5428 10.03 86.9661 10.18 86.4861 10.48C86.0128 10.78 85.6461 11.1533 85.3861 11.6L85.0661 11.08C85.3394 10.4467 85.7828 9.91667 86.3961 9.49C87.0094 9.06333 87.7928 8.85 88.7461 8.85C89.9328 8.85 90.9128 9.29 91.6861 10.17C92.4661 11.0433 92.8561 12.23 92.8561 13.73C92.8561 15.3567 92.4528 16.6633 91.6461 17.65C90.8394 18.63 89.7561 19.12 88.3961 19.12C87.5428 19.12 86.8161 18.9633 86.2161 18.65C85.6228 18.33 85.2228 17.9933 85.0161 17.64ZM94.3034 11.63C94.3034 9.40333 94.9801 7.54333 96.3334 6.05C97.6868 4.55 99.4668 3.8 101.673 3.8C103.873 3.8 105.65 4.50333 107.003 5.91C108.363 7.31 109.043 9.16667 109.043 11.48C109.043 13.6867 108.37 15.5433 107.023 17.05C105.683 18.55 103.913 19.3 101.713 19.3C99.5601 19.3 97.7868 18.5933 96.3934 17.18C95.0001 15.76 94.3034 13.91 94.3034 11.63ZM96.2134 11.28C96.2134 13.2933 96.7201 14.9333 97.7334 16.2C98.7468 17.46 100.067 18.09 101.693 18.09C103.46 18.09 104.807 17.5267 105.733 16.4C106.667 15.2733 107.133 13.6533 107.133 11.54C107.133 9.65333 106.637 8.10667 105.643 6.9C104.65 5.69333 103.333 5.09 101.693 5.09C99.9201 5.09 98.5634 5.63667 97.6234 6.73C96.6834 7.82333 96.2134 9.34 96.2134 11.28ZM110.553 19V18.26L112.003 17.91L112.023 13.74L112.003 10.56L110.553 10.26V9.39L113.133 9.05L113.473 9.3L113.703 10.38L113.683 13.74L113.703 17.91L115.053 18.26V19H110.553ZM113.653 11.77L113.333 11.11C113.626 10.4633 114.126 9.92333 114.833 9.49C115.539 9.05667 116.296 8.84 117.103 8.84C118.116 8.84 118.876 9.08667 119.383 9.58C119.889 10.0667 120.142 10.7333 120.142 11.58C120.142 12.0733 120.133 12.5633 120.113 13.05C120.099 13.5367 120.092 13.78 120.092 13.78L120.142 17.91L121.593 18.26V19H116.903V18.26L118.443 17.91L118.463 13.74V11.97C118.463 11.41 118.286 10.9767 117.933 10.67C117.586 10.3567 117.119 10.2 116.533 10.2C115.939 10.2 115.383 10.3467 114.862 10.64C114.343 10.9267 113.939 11.3033 113.653 11.77ZM122.974 19V18.26L124.554 17.91L124.574 13.73L124.554 5.17L122.734 4.87V4L125.694 3.66L126.044 3.68L126.254 3.99L126.234 13.73L126.254 17.91L127.804 18.26V19H122.974ZM129.195 19V18.26L130.835 17.91L130.855 13.78L130.785 10.56L129.145 10.26V9.39L131.905 9.04H132.345L132.585 9.43L132.515 13.78L132.535 17.91L134.085 18.26V19H129.195ZM130.395 5.66C130.395 5.27333 130.502 4.97667 130.715 4.77C130.929 4.55667 131.239 4.45 131.645 4.45C132.019 4.45 132.319 4.56333 132.545 4.79C132.772 5.01 132.885 5.3 132.885 5.66C132.885 6.05333 132.779 6.35667 132.565 6.57C132.352 6.77667 132.045 6.88 131.645 6.88C131.265 6.88 130.962 6.77 130.735 6.55C130.509 6.32333 130.395 6.02667 130.395 5.66ZM135.474 19V18.26L136.924 17.91L136.944 13.74L136.924 10.56L135.474 10.26V9.39L138.054 9.05L138.394 9.3L138.624 10.38L138.604 13.74L138.624 17.91L139.974 18.26V19H135.474ZM138.574 11.77L138.254 11.11C138.548 10.4633 139.048 9.92333 139.754 9.49C140.461 9.05667 141.218 8.84 142.024 8.84C143.038 8.84 143.798 9.08667 144.304 9.58C144.811 10.0667 145.064 10.7333 145.064 11.58C145.064 12.0733 145.054 12.5633 145.034 13.05C145.021 13.5367 145.014 13.78 145.014 13.78L145.064 17.91L146.514 18.26V19H141.824V18.26L143.364 17.91L143.384 13.74V11.97C143.384 11.41 143.208 10.9767 142.854 10.67C142.508 10.3567 142.041 10.2 141.454 10.2C140.861 10.2 140.304 10.3467 139.784 10.64C139.264 10.9267 138.861 11.3033 138.574 11.77ZM147.776 14.03C147.776 12.5767 148.21 11.3467 149.076 10.34C149.943 9.33333 151.076 8.83 152.476 8.83C153.756 8.83 154.76 9.21333 155.486 9.98C156.213 10.7467 156.643 11.81 156.776 13.17H155.136C155.056 12.13 154.776 11.3233 154.296 10.75C153.823 10.17 153.14 9.88 152.246 9.88C151.453 9.88 150.806 10.23 150.306 10.93C149.813 11.6233 149.57 12.5867 149.576 13.82C149.583 15.2067 149.91 16.25 150.556 16.95C151.203 17.65 152.04 18 153.066 18C153.746 18 154.306 17.9233 154.746 17.77C155.193 17.6167 155.586 17.4067 155.926 17.14L156.396 17.69C156.09 18.1167 155.65 18.48 155.076 18.78C154.503 19.0733 153.786 19.22 152.926 19.22C151.4 19.22 150.16 18.7433 149.206 17.79C148.253 16.8367 147.776 15.5833 147.776 14.03ZM149.276 13.73V12.84H156.246L156.776 13.17V13.73H149.276Z" fill="#030812"/>
<path d="M173.354 12L180.5 4.85355L187.646 12L180.5 19.1464L173.354 12Z" stroke="#030812" stroke-width="0.5"/>
<path d="M173.354 12L180.5 4.85355L187.646 12L180.5 19.1464L173.354 12Z" stroke="#030812" stroke-width="0.5"/>
<path d="M173.354 12L180.5 4.85355L187.646 12L180.5 19.1464L173.354 12Z" stroke="#030812" stroke-width="0.5"/>
<path d="M189.354 12L196.5 4.85355L203.646 12L196.5 19.1464L189.354 12Z" stroke="#030812" stroke-width="0.5"/>
<path d="M189.354 12L196.5 4.85355L203.646 12L196.5 19.1464L189.354 12Z" stroke="#030812" stroke-width="0.5"/>
<path d="M189.354 12L196.5 4.85355L203.646 12L196.5 19.1464L189.354 12Z" stroke="#030812" stroke-width="0.5"/>
<path d="M181.354 12L188.5 4.85355L195.646 12L188.5 19.1464L181.354 12Z" stroke="#030812" stroke-width="0.5"/>
<path d="M181.354 12L188.5 4.85355L195.646 12L188.5 19.1464L181.354 12Z" stroke="#030812" stroke-width="0.5"/>
<path d="M181.354 12L188.5 4.85355L195.646 12L188.5 19.1464L181.354 12Z" stroke="#030812" stroke-width="0.5"/>
</svg>
