<svg width="50" height="50" viewBox="0 0 50 50" fill="none" xmlns="http://www.w3.org/2000/svg">
<g clip-path="url(#clip0_823_1313)">
<path d="M49.2186 6.95611C49.2016 6.63932 48.9824 6.36949 48.6758 6.28785L25.1702 0.0246826C25.0465 -0.00822752 24.9164 -0.00822752 24.7928 0.0246826L1.32391 6.28795C1.01785 6.36969 0.798909 6.63883 0.78133 6.95514C0.765022 7.24811 0.414339 14.2331 3.16111 23.0639C4.77546 28.2539 7.1321 32.9926 10.1657 37.1484C13.9604 42.3471 18.8276 46.6391 24.6319 49.9058C24.7433 49.9685 24.8671 50 24.9911 50C25.109 50 25.2271 49.9715 25.3346 49.9144C31.1487 46.8262 36.0239 42.643 39.8248 37.481C42.8618 33.3563 45.2211 28.6037 46.8371 23.3552C49.5853 14.4291 49.2349 7.25719 49.2186 6.95611ZM45.4218 22.9736C43.8515 28.0558 41.5652 32.6529 38.6266 36.6376C35.1989 41.2852 30.8647 45.1106 25.7326 48.0236V44.2556C32.3858 40.0553 37.4035 34.1094 40.6472 26.5751C43.318 20.3717 44.1883 14.4831 44.448 10.6354C44.4717 10.2858 44.2444 9.96841 43.9058 9.87828L42.4121 9.48033C42.0214 9.37623 41.6199 9.60855 41.5157 9.99957C41.4116 10.3904 41.6439 10.7918 42.035 10.896L42.9419 11.1376C42.6414 14.8677 41.7551 20.2971 39.3016 25.9958C36.1945 33.2129 31.4037 38.9148 25.0579 42.9508C24.4209 42.5296 23.7945 42.09 23.1909 41.6406C22.8665 41.399 22.4076 41.4661 22.1659 41.7906C21.9243 42.115 21.9913 42.574 22.3159 42.8156C22.9466 43.2853 23.6018 43.7433 24.2674 44.1828V47.9997C19.133 44.9282 14.7975 41.0013 11.3688 36.3118C8.43102 32.2938 6.14568 27.7075 4.57615 22.6806C2.31707 15.4447 2.20662 9.34488 2.23006 7.56236L24.2674 1.68112V5.02672L6.10456 9.87398C5.76511 9.9646 5.53777 10.2835 5.56277 10.6339C5.75193 13.281 6.28435 17.3995 7.74714 21.9882C10.1654 29.5743 14.2269 35.9031 19.8188 40.7989C19.9578 40.9206 20.1297 40.9803 20.3011 40.9803C20.5049 40.9803 20.7077 40.8957 20.8526 40.7303C21.1191 40.4259 21.0883 39.9631 20.7839 39.6967C15.3957 34.9793 11.4791 28.8716 9.14294 21.5434C7.83063 17.4267 7.2902 13.7003 7.07136 11.1325L24.9828 6.35241L38.869 10.0525C39.2599 10.1565 39.6612 9.92427 39.7653 9.53326C39.8694 9.14244 39.6371 8.74097 39.2461 8.63687L25.7325 5.036V1.6906L47.7696 7.56266C47.7938 9.37564 47.6882 15.6388 45.4218 22.9736Z" fill="#272343"/>
<path d="M36.0203 17.1151C35.5864 16.6806 35.0092 16.4414 34.3949 16.4414C33.7806 16.4414 33.2033 16.6806 32.7699 17.1147L23.4342 26.45L18.3375 21.3537C17.9039 20.9193 17.3265 20.6801 16.7123 20.6801C16.0979 20.6801 15.5207 20.9192 15.0874 21.3532C14.6532 21.7873 14.4138 22.3644 14.4138 22.9785C14.4138 23.5926 14.653 24.1696 15.0872 24.6035L21.8087 31.3252C22.2426 31.7595 22.8198 31.9988 23.4341 31.9988C24.0485 31.9988 24.6256 31.7596 25.0592 31.3255L36.0197 20.3649C36.454 19.931 36.6933 19.3538 36.6933 18.7397C36.6933 18.1257 36.4541 17.5485 36.0203 17.1151ZM34.984 19.3288L24.023 30.2898C23.866 30.447 23.6569 30.5337 23.4341 30.5337C23.2114 30.5337 23.0023 30.447 22.845 30.2895L16.1229 23.5674C15.9656 23.4101 15.8789 23.2011 15.8789 22.9784C15.8789 22.7558 15.9656 22.5468 16.1234 22.3889C16.2804 22.2316 16.4896 22.145 16.7123 22.145C16.9348 22.145 17.1439 22.2316 17.3014 22.3891L22.9163 28.0037C23.2024 28.2897 23.6662 28.2896 23.9522 28.0037L33.8062 18.1501C33.9632 17.9929 34.1724 17.9062 34.395 17.9062C34.6177 17.9062 34.8267 17.9929 34.9843 18.1506C35.1416 18.3078 35.2283 18.517 35.2283 18.7395C35.2283 18.9621 35.1415 19.1714 34.984 19.3288Z" fill="#272343"/>
</g>
<defs>
<clipPath id="clip0_823_1313">
<rect width="50" height="50" fill="white"/>
</clipPath>
</defs>
</svg>
