<svg width="16" height="20" viewBox="0 0 16 20" fill="none" xmlns="http://www.w3.org/2000/svg">
<path fill-rule="evenodd" clip-rule="evenodd" d="M7.98632 13.0664C4.44065 13.0664 1.41382 13.6027 1.41382 15.7495C1.41382 17.8963 4.4214 18.4518 7.98632 18.4518C11.5311 18.4518 14.5588 17.9147 14.5588 15.7687C14.5588 13.6228 11.5503 13.0664 7.98632 13.0664V13.0664Z" stroke="white" stroke-width="1.5" stroke-linecap="round" stroke-linejoin="round"/>
<path fill-rule="evenodd" clip-rule="evenodd" d="M7.98622 10.0051C8.81947 10.0051 9.63401 9.75801 10.3268 9.29508C11.0197 8.83215 11.5597 8.17417 11.8785 7.40435C12.1974 6.63452 12.2808 5.78743 12.1183 4.97019C11.9557 4.15295 11.5545 3.40226 10.9653 2.81306C10.3761 2.22386 9.62538 1.82261 8.80813 1.66006C7.99089 1.4975 7.1438 1.58093 6.37397 1.8998C5.60415 2.21867 4.94617 2.75866 4.48324 3.45149C4.02031 4.14431 3.77322 4.95885 3.77322 5.7921C3.76932 6.90541 4.20779 7.97469 4.99218 8.76475C5.77657 9.55482 6.84266 10.001 7.95597 10.0051H7.98622Z" stroke="white" stroke-width="1.429" stroke-linecap="round" stroke-linejoin="round"/>
</svg>
